<svg width="0" height="0" class="hidden">
  <symbol id="svg_logo" viewBox="0 0 171 42" fill="none" xmlns="http://www.w3.org/2000/svg">
    <path d="M26.2549 29.932L37.0897 0H51.9149L35.4819 41.575H16.4304L0 0H15.2405L26.2549 29.932ZM71.1431 41.575H56.8566V0H71.1431V41.575ZM123.039 10.2153H107.023V41.575H92.7342V10.2153H76.719V0H123.039V10.2153ZM169.753 10.0977H142.904V15.6799H169.335V25.4781H142.904V31.4775H170.528V41.575H128.614V0H169.753V10.0977Z" fill="white"/>
  </symbol>
  <symbol id="svg_tel_2" viewBox="0 0 31 31" fill="none" xmlns="http://www.w3.org/2000/svg">
    <rect width="31" height="31" rx="15.5" fill="#5680B3" fill-opacity="0.15"/>
    <path d="M20.3039 23H20.5812C20.8136 22.9925 21.0309 22.8726 21.1658 22.6776L22.8671 20.2262C22.9795 20.0613 23.0245 19.8589 22.987 19.6564C22.9687 19.5578 22.9307 19.4638 22.8753 19.3801C22.82 19.2964 22.7484 19.2247 22.6648 19.1691L18.9849 16.7177C18.6776 16.5153 18.2654 16.5603 18.018 16.8302L16.609 18.352C16.0394 18.0146 15.0876 17.4074 14.3381 16.6577C13.5887 15.908 12.9816 14.956 12.6443 14.3937L14.1658 12.9843C14.4356 12.7369 14.488 12.3246 14.2782 12.0172L11.8274 8.3363C11.715 8.17137 11.5426 8.05143 11.3478 8.01394C11.1454 7.97646 10.943 8.01394 10.7782 8.13389L8.32739 9.82816C8.13253 9.9631 8.01261 10.1805 8.00512 10.4129C7.98263 10.9452 7.8852 15.6906 11.5951 19.3941C14.9377 22.7376 19.1198 22.9925 20.3039 22.9925V23Z" fill="#1E60B3"/>
  </symbol>

  <symbol id="svg_burger" viewBox="0 0 20 14" fill="none" xmlns="http://www.w3.org/2000/svg">
    <path d="M1 1H19M1 7H19M1 13H19" stroke="currentColor" stroke-width="2" stroke-linecap="round" stroke-linejoin="round"/>
  </symbol>
  <symbol fill="none" xmlns="http://www.w3.org/2000/svg" viewBox="0 0 14 14" id="svg_tel">
    <path fill-rule="evenodd" clip-rule="evenodd" d="M10.2988 13.998C9.28912 13.9609 6.42758 13.5655 3.43072 10.5699C0.434554 7.57366 0.0397867 4.71341 0.00192265 3.70321C-0.0541722 2.16373 1.12522 0.668404 2.48762 0.0844363C2.65169 0.0136079 2.83135 -0.0133586 3.00898 0.00618291C3.18661 0.0257244 3.35611 0.0911026 3.50084 0.195902C4.62273 1.01332 5.39684 2.24995 6.06157 3.2223C6.20782 3.43593 6.27036 3.69589 6.23725 3.95264C6.20415 4.2094 6.07772 4.445 5.88206 4.61457L4.51405 5.63038C4.44796 5.67809 4.40143 5.74817 4.38312 5.8276C4.36481 5.90702 4.37595 5.99039 4.41448 6.06222C4.72441 6.62515 5.27554 7.4636 5.9066 8.09454C6.53837 8.72548 7.41626 9.31295 8.01857 9.65786C8.09409 9.70025 8.18298 9.71209 8.26697 9.69097C8.35096 9.66985 8.42367 9.61736 8.47014 9.54429L9.36064 8.18918C9.52436 7.97175 9.76588 7.82609 10.0346 7.7827C10.3033 7.73932 10.5784 7.80157 10.8023 7.95643C11.7888 8.63925 12.9402 9.39988 13.783 10.4788C13.8963 10.6245 13.9684 10.798 13.9918 10.9812C14.0151 11.1643 13.9887 11.3503 13.9155 11.5198C13.3286 12.889 11.8435 14.0548 10.2988 13.998Z" fill="currentColor"></path>
  </symbol>


  <symbol id="svg_input_checkbox" viewBox="0 0 20 20" fill="none" xmlns="http://www.w3.org/2000/svg">
    <rect x="0.5" y="0.5" width="19" height="19" rx="3.5" fill="var(--color-3)"/>
    <rect x="0.5" y="0.5" width="19" height="19" rx="3.5" stroke="var(--color-1)"/>
    <path d="M7.59514 16L3 11.6042L5.09408 9.60103L7.59514 12.0006L14.9059 5L17 7.00322L7.59514 16Z" fill="var(--color-2)"/>
  </symbol>
  <symbol fill="none" xmlns="http://www.w3.org/2000/svg" viewBox="0 0 26 26" id="svg_input_radio">
    <circle cx="13" cy="13" r="12.5" stroke="currentColor"></circle>
    <circle cx="13" cy="13" r="8" fill="currentColor"></circle>
  </symbol>



  <symbol fill="none" xmlns="http://www.w3.org/2000/svg" viewBox="0 0 28 28" id="svg_social_email">
    <circle cx="14" cy="14" r="14" fill="var(--color-1)"></circle>
    <path d="M19.6 8H8.4C7.6268 8 7 8.6268 7 9.4V17.8C7 18.5732 7.6268 19.2 8.4 19.2H19.6C20.3732 19.2 21 18.5732 21 17.8V9.4C21 8.6268 20.3732 8 19.6 8Z" fill="var(--color-2)" stroke="var(--color-1)" stroke-width="1.6" stroke-linecap="round" stroke-linejoin="round"></path>
    <path d="M21 10.1006L14.721 14.0906C14.5049 14.226 14.255 14.2978 14 14.2978C13.745 14.2978 13.4951 14.226 13.279 14.0906L7 10.1006" fill="var(--color-2)"></path>
    <path d="M21 10.1006L14.721 14.0906C14.5049 14.226 14.255 14.2978 14 14.2978C13.745 14.2978 13.4951 14.226 13.279 14.0906L7 10.1006" stroke="var(--color-1)" stroke-width="1.6" stroke-linecap="round" stroke-linejoin="round"></path>
  </symbol>


  <symbol fill="none" xmlns="http://www.w3.org/2000/svg" viewBox="0 0 28 28" id="svg_social_whatsapp">
    <circle cx="14" cy="14" r="14" fill="var(--color-1)"></circle>
    <mask id="mask0_641_706" maskUnits="userSpaceOnUse" x="7" y="7" width="15" height="14">
      <path d="M21.5 7H7.5V21H21.5V7Z" fill="var(--color-1)"></path>
    </mask>
    <g mask="url(#mask0_641_706)">
      <path d="M14.5 19.25C17.3995 19.25 19.75 16.8995 19.75 14C19.75 11.1005 17.3995 8.75 14.5 8.75C11.6005 8.75 9.25 11.1005 9.25 14C9.25 16.8995 11.6005 19.25 14.5 19.25Z" fill="var(--color-1)"></path>
      <path d="M14.5018 7H14.4983C10.6386 7 7.50001 10.1395 7.50001 14C7.49762 15.4744 7.96434 16.9113 8.83263 18.1029L7.96026 20.7034L10.6509 19.8432C11.7922 20.6005 13.1321 21.0029 14.5018 21C18.3614 21 21.5 17.8596 21.5 14C21.5 10.1404 18.3614 7 14.5018 7ZM18.5749 16.8849C18.406 17.3617 17.7358 17.7572 17.2011 17.8727C16.8354 17.9506 16.3576 18.0127 14.7494 17.346C12.6923 16.4937 11.3675 14.4034 11.2643 14.2677C11.1654 14.1321 10.433 13.1609 10.433 12.1564C10.433 11.1519 10.9431 10.6627 11.1488 10.4527C11.3176 10.2804 11.5968 10.2016 11.8645 10.2016C11.9511 10.2016 12.029 10.206 12.099 10.2095C12.3046 10.2183 12.4079 10.2305 12.5435 10.5551C12.7124 10.962 13.1236 11.9665 13.1726 12.0697C13.2225 12.173 13.2724 12.313 13.2024 12.4486C13.1368 12.5886 13.079 12.6507 12.9758 12.7697C12.8725 12.8887 12.7745 12.9797 12.6713 13.1075C12.5768 13.2186 12.47 13.3376 12.589 13.5432C12.708 13.7445 13.1193 14.4156 13.7248 14.9546C14.5061 15.6502 15.1396 15.8725 15.3663 15.967C15.5351 16.037 15.7364 16.0204 15.8598 15.8891C16.0164 15.7202 16.2098 15.4402 16.4066 15.1646C16.5466 14.9669 16.7234 14.9424 16.9089 15.0124C17.0979 15.078 18.098 15.5724 18.3036 15.6747C18.5093 15.778 18.6449 15.827 18.6948 15.9136C18.7438 16.0002 18.7438 16.4071 18.5749 16.8849Z" fill="var(--color-2)"></path>
    </g>
  </symbol>

  <symbol fill="none" xmlns="http://www.w3.org/2000/svg" viewBox="0 0 28 28" id="svg_social_tg">
    <circle cx="14" cy="14" r="14" fill="var(--color-1)"></circle>
    <path fill-rule="evenodd" clip-rule="evenodd" d="M19.3427 8.08894C19.5394 8.01019 19.7547 7.98303 19.9662 8.01028C20.1777 8.03754 20.3777 8.11821 20.5453 8.24391C20.7129 8.36961 20.842 8.53573 20.9192 8.72499C20.9964 8.91425 21.0188 9.11973 20.9842 9.32004L19.1787 19.736C19.0035 20.7407 17.8445 21.3169 16.8757 20.8164C16.0653 20.3977 14.8616 19.7526 13.779 19.0795C13.2376 18.7426 11.5794 17.6637 11.7832 16.8959C11.9583 16.2395 14.7446 13.7728 16.3367 12.3062C16.9616 11.73 16.6766 11.3976 15.9387 11.9276C14.1061 13.2435 11.1639 15.2446 10.1911 15.8079C9.33291 16.3046 8.88552 16.3894 8.35056 16.3046C7.37458 16.1502 6.46945 15.9109 5.7307 15.6194C4.73243 15.2257 4.78099 13.9204 5.72991 13.5403L19.3427 8.08894Z" fill="var(--color-2)"></path>
  </symbol>

  <symbol fill="none" xmlns="http://www.w3.org/2000/svg" viewBox="0 0 18 18" id="svg_close">
    <path d="M17 1L9 9M9 9L1 17M9 9L1 1M9 9L17 17" stroke="currentColor" stroke-width="2" stroke-linecap="round" stroke-linejoin="round"></path>
  </symbol>


  <symbol fill="none" xmlns="http://www.w3.org/2000/svg" viewBox="0 0 44 44" id="svg_arrow_slider">
    <path d="M22 43C33.598 43 43 33.598 43 22C43 10.402 33.598 1 22 1C10.402 1 1 10.402 1 22C1 33.598 10.402 43 22 43Z" fill="var(--color-1)" stroke="var(--color-2)" stroke-width="2" stroke-linecap="round" stroke-linejoin="round"></path>
    <path d="M19 15L26 22L19 29" stroke="var(--color-3)" stroke-width="1.5" stroke-linecap="round" stroke-linejoin="round"></path>
  </symbol>
  <symbol fill="none" xmlns="http://www.w3.org/2000/svg" viewBox="0 0 10 25" id="svg_arrow_top">
    <path d="M5.42427 1.06181C5.18995 0.827497 4.81005 0.827497 4.57574 1.06181L0.75736 4.88019C0.523045 5.1145 0.523045 5.4944 0.75736 5.72872C0.991675 5.96303 1.37157 5.96303 1.60589 5.72872L5 2.3346L8.39411 5.72872C8.62843 5.96303 9.00833 5.96303 9.24264 5.72872C9.47696 5.4944 9.47696 5.1145 9.24264 4.88019L5.42427 1.06181ZM5.6 24.5146L5.6 1.48608L4.4 1.48608L4.4 24.5146L5.6 24.5146Z" fill="black"></path>
  </symbol>


  <symbol fill="none" xmlns="http://www.w3.org/2000/svg" viewBox="0 0 65 65" id="svg_popup_thanks">
    <path d="M32.5 0C41.1195 0 49.386 3.4241 55.481 9.51903C61.5759 15.614 65 23.8805 65 32.5C65 41.1195 61.5759 49.386 55.481 55.481C49.386 61.5759 41.1195 65 32.5 65C23.8805 65 15.614 61.5759 9.51903 55.481C3.4241 49.386 0 41.1195 0 32.5C0 23.8805 3.4241 15.614 9.51903 9.51903C15.614 3.4241 23.8805 0 32.5 0ZM46.1419 22.9369C45.8055 22.602 45.3625 22.3955 44.8898 22.3532C44.4171 22.3109 43.9445 22.4355 43.5541 22.7053L43.2697 22.9369L28.4375 37.7731L21.7506 31.0822L21.4662 30.8466C21.075 30.577 20.6016 30.4531 20.1284 30.4965C19.6553 30.5399 19.2123 30.7478 18.8765 31.084C18.5408 31.4202 18.3336 31.8635 18.2909 32.3367C18.2482 32.81 18.3727 33.2832 18.6428 33.6741L18.8744 33.9584L26.9994 42.0834L27.2837 42.315C27.623 42.5491 28.0254 42.6745 28.4375 42.6745C28.8496 42.6745 29.252 42.5491 29.5913 42.315L29.8756 42.0794L46.1419 25.8131L46.3775 25.5288C46.6479 25.1375 46.7724 24.6638 46.7293 24.1901C46.6862 23.7165 46.4784 23.273 46.1419 22.9369Z" fill="currentColor"></path>
  </symbol>

  <symbol fill="none" xmlns="http://www.w3.org/2000/svg" viewBox="0 0 16 16" id="svg_arrow_default">
    <path d="M11 7.99997C11.0001 8.06564 10.9872 8.13067 10.9621 8.19133C10.9369 8.252 10.9 8.3071 10.8535 8.35347L5.85353 13.3535C5.65816 13.5488 5.34178 13.5488 5.14653 13.3535C4.95128 13.1581 4.95116 12.8417 5.14653 12.6465L9.79303 7.99997L5.14653 3.35347C4.95116 3.15809 4.95116 2.84172 5.14653 2.64647C5.34191 2.45122 5.65828 2.45109 5.85353 2.64647L10.8535 7.64647C10.9 7.69284 10.9369 7.74794 10.9621 7.8086C10.9872 7.86927 11.0001 7.9343 11 7.99997Z" fill="currentColor"></path>
  </symbol>

  <symbol id="svg_button_move" viewBox="0 0 86 16" fill="none" xmlns="http://www.w3.org/2000/svg">
    <path d="M23.6364 3.42857C21.32 1.36 17.42 0 13 0C8.58 0 4.68 1.36 2.36364 3.42857H0V13.7143H1.18182C1.18182 14.3205 1.43084 14.9019 1.87411 15.3305C2.31738 15.7592 2.91858 16 3.54545 16C4.17233 16 4.77353 15.7592 5.2168 15.3305C5.66007 14.9019 5.90909 14.3205 5.90909 13.7143H20.0909C20.0909 14.3205 20.3399 14.9019 20.7832 15.3305C21.2265 15.7592 21.8277 16 22.4545 16C23.0814 16 23.6826 15.7592 24.1259 15.3305C24.5692 14.9019 24.8182 14.3205 24.8182 13.7143H26V3.42857H23.6364ZM14.1818 11.4286V6.85714H11.8182V11.4286H8.27273V6.85714H5.90909V11.4286H2.36364V5.71429H23.6364V11.4286H20.0909V6.85714H17.7273V11.4286H14.1818Z" fill="white"/>
    <path d="M56 1V13.6923H54.8182C54.8182 14.9731 53.7664 16 52.4545 16C51.1427 16 50.0909 14.9731 50.0909 13.6923H35.9091C35.9091 14.9731 34.8573 16 33.5455 16C32.2336 16 31.1818 14.9731 31.1818 13.6923H30V1H32.3636V11.3846H53.6364V1H56ZM38.2727 7.92308H33.5455V10.2308H38.2727V7.92308ZM46.5455 7.92308H39.4545V10.2308H46.5455V7.92308ZM52.4545 7.92308H47.7273V10.2308H52.4545V7.92308ZM38.2727 4.46154H33.5455V6.76923H38.2727V4.46154ZM46.5455 4.46154H39.4545V6.76923H46.5455V4.46154ZM52.4545 4.46154H47.7273V6.76923H52.4545V4.46154ZM38.2727 1H33.5455V3.30769H38.2727V1ZM46.5455 1H39.4545V3.30769H46.5455V1ZM52.4545 1H47.7273V3.30769H52.4545V1Z" fill="white"/>
    <path d="M60 1V13.6923H61.1818C61.1818 14.3043 61.4308 14.8913 61.8741 15.3241C62.3174 15.7569 62.9186 16 63.5455 16C64.1723 16 64.7735 15.7569 65.2168 15.3241C65.6601 14.8913 65.9091 14.3043 65.9091 13.6923H80.0909C80.0909 14.3043 80.3399 14.8913 80.7832 15.3241C81.2265 15.7569 81.8277 16 82.4545 16C83.0814 16 83.6826 15.7569 84.1259 15.3241C84.5692 14.8913 84.8182 14.3043 84.8182 13.6923H86V1H60ZM83.6364 11.3846H81.2727V4.46154H78.9091V11.3846H76.5455V4.46154H74.1818V11.3846H71.8182V4.46154H69.4545V11.3846H67.0909V4.46154H64.7273V11.3846H62.3636V3.30769H83.6364V11.3846Z" fill="white"/>
  </symbol>

  <symbol id="svg_card_1" viewBox="0 0 89 89" fill="none" xmlns="http://www.w3.org/2000/svg">
    <path d="M45.7346 46.6345H66.9084C67.0023 46.6343 67.0923 46.5968 67.1587 46.5305C67.2251 46.4641 67.2625 46.3741 67.2627 46.2802V35.2305C67.2625 35.1366 67.2251 35.0466 67.1587 34.9802C67.0923 34.9138 67.0023 34.8764 66.9084 34.8761H65.951V33.4508C65.951 33.2552 65.8733 33.0677 65.735 32.9294C65.5968 32.7912 65.4093 32.7135 65.2137 32.7135C65.0182 32.7135 64.8307 32.7912 64.6924 32.9294C64.5541 33.0677 64.4765 33.2552 64.4765 33.4508V34.8761H48.3611V33.4508C48.3611 33.2552 48.2834 33.0677 48.1452 32.9294C48.0069 32.7912 47.8194 32.7135 47.6238 32.7135C47.4283 32.7135 47.2408 32.7912 47.1025 32.9294C46.9643 33.0677 46.8866 33.2552 46.8866 33.4508V34.8761H45.7346C45.6407 34.8764 45.5508 34.9138 45.4844 34.9802C45.418 35.0466 45.3806 35.1366 45.3803 35.2305V46.2802C45.3806 46.3741 45.418 46.4641 45.4844 46.5305C45.5508 46.5968 45.6407 46.6343 45.7346 46.6345ZM62.8322 37.8783C62.8322 37.6828 62.9099 37.4953 63.0481 37.357C63.1864 37.2188 63.3739 37.1411 63.5695 37.1411C63.765 37.1411 63.9525 37.2188 64.0908 37.357C64.229 37.4953 64.3067 37.6828 64.3067 37.8783V43.6476C64.3067 43.8432 64.229 44.0307 64.0908 44.169C63.9525 44.3072 63.765 44.3849 63.5695 44.3849C63.3739 44.3849 63.1864 44.3072 63.0481 44.169C62.9099 44.0307 62.8322 43.8432 62.8322 43.6476V37.8783ZM59.2082 37.8783C59.2082 37.6828 59.2859 37.4953 59.4242 37.357C59.5624 37.2188 59.75 37.1411 59.9455 37.1411C60.141 37.1411 60.3285 37.2188 60.4668 37.357C60.6051 37.4953 60.6827 37.6828 60.6827 37.8783V43.6476C60.6827 43.8432 60.6051 44.0307 60.4668 44.169C60.3285 44.3072 60.141 44.3849 59.9455 44.3849C59.75 44.3849 59.5624 44.3072 59.4242 44.169C59.2859 44.0307 59.2082 43.8432 59.2082 43.6476V37.8783ZM55.5843 37.8783C55.5843 37.6828 55.6619 37.4953 55.8002 37.357C55.9385 37.2188 56.126 37.1411 56.3215 37.1411C56.517 37.1411 56.7046 37.2188 56.8428 37.357C56.9811 37.4953 57.0588 37.6828 57.0588 37.8783V43.6476C57.0588 43.8432 56.9811 44.0307 56.8428 44.169C56.7046 44.3072 56.517 44.3849 56.3215 44.3849C56.126 44.3849 55.9385 44.3072 55.8002 44.169C55.6619 44.0307 55.5843 43.8432 55.5843 43.6476V37.8783ZM51.9603 37.8783C51.9603 37.6828 52.038 37.4953 52.1762 37.357C52.3145 37.2188 52.502 37.1411 52.6975 37.1411C52.8931 37.1411 53.0806 37.2188 53.2189 37.357C53.3571 37.4953 53.4348 37.6828 53.4348 37.8783V43.6476C53.4348 43.8432 53.3571 44.0307 53.2189 44.169C53.0806 44.3072 52.8931 44.3849 52.6975 44.3849C52.502 44.3849 52.3145 44.3072 52.1762 44.169C52.038 44.0307 51.9603 43.8432 51.9603 43.6476V37.8783ZM48.3363 37.8783C48.3363 37.6828 48.414 37.4953 48.5522 37.357C48.6905 37.2188 48.878 37.1411 49.0736 37.1411C49.2691 37.1411 49.4566 37.2188 49.5949 37.357C49.7331 37.4953 49.8108 37.6828 49.8108 37.8783V43.6476C49.8108 43.8432 49.7331 44.0307 49.5949 44.169C49.4566 44.3072 49.2691 44.3849 49.0736 44.3849C48.878 44.3849 48.6905 44.3072 48.5522 44.169C48.414 44.0307 48.3363 43.8432 48.3363 43.6476V37.8783ZM22.0916 46.6345H43.2654C43.3593 46.6343 43.4492 46.5968 43.5156 46.5305C43.582 46.4641 43.6194 46.3741 43.6197 46.2802V35.2305C43.6194 35.1366 43.582 35.0466 43.5156 34.9802C43.4492 34.9138 43.3593 34.8764 43.2654 34.8761H42.308V33.4508C42.308 33.2552 42.2303 33.0677 42.092 32.9294C41.9538 32.7912 41.7662 32.7135 41.5707 32.7135C41.3752 32.7135 41.1876 32.7912 41.0494 32.9294C40.9111 33.0677 40.8334 33.2552 40.8334 33.4508V34.8761H24.7181V33.4508C24.7181 33.2552 24.6404 33.0677 24.5021 32.9294C24.3639 32.7912 24.1763 32.7135 23.9808 32.7135C23.7853 32.7135 23.5978 32.7912 23.4595 32.9294C23.3212 33.0677 23.2436 33.2552 23.2436 33.4508V34.8761H22.0916C21.9977 34.8764 21.9077 34.9138 21.8413 34.9802C21.7749 35.0466 21.7375 35.1366 21.7373 35.2305V46.2802C21.7375 46.3741 21.7749 46.4641 21.8413 46.5305C21.9077 46.5968 21.9977 46.6343 22.0916 46.6345ZM39.1893 37.8783C39.1893 37.6828 39.267 37.4953 39.4052 37.357C39.5435 37.2188 39.731 37.1411 39.9265 37.1411C40.1221 37.1411 40.3096 37.2188 40.4479 37.357C40.5861 37.4953 40.6638 37.6828 40.6638 37.8783V43.6476C40.6638 43.8432 40.5861 44.0307 40.4479 44.169C40.3096 44.3072 40.1221 44.3849 39.9265 44.3849C39.731 44.3849 39.5435 44.3072 39.4052 44.169C39.267 44.0307 39.1893 43.8432 39.1893 43.6476V37.8783ZM35.5652 37.8783C35.5652 37.6828 35.6429 37.4953 35.7811 37.357C35.9194 37.2188 36.1069 37.1411 36.3025 37.1411C36.498 37.1411 36.6855 37.2188 36.8238 37.357C36.962 37.4953 37.0397 37.6828 37.0397 37.8783V43.6476C37.0397 43.8432 36.962 44.0307 36.8238 44.169C36.6855 44.3072 36.498 44.3849 36.3025 44.3849C36.1069 44.3849 35.9194 44.3072 35.7811 44.169C35.6429 44.0307 35.5652 43.8432 35.5652 43.6476V37.8783ZM31.9412 37.8783C31.9412 37.6828 32.0189 37.4953 32.1572 37.357C32.2954 37.2188 32.483 37.1411 32.6785 37.1411C32.874 37.1411 33.0615 37.2188 33.1998 37.357C33.3381 37.4953 33.4157 37.6828 33.4157 37.8783V43.6476C33.4157 43.8432 33.3381 44.0307 33.1998 44.169C33.0615 44.3072 32.874 44.3849 32.6785 44.3849C32.483 44.3849 32.2954 44.3072 32.1572 44.169C32.0189 44.0307 31.9412 43.8432 31.9412 43.6476V37.8783ZM28.3173 37.8783C28.3173 37.6828 28.3949 37.4953 28.5332 37.357C28.6715 37.2188 28.859 37.1411 29.0545 37.1411C29.25 37.1411 29.4376 37.2188 29.5758 37.357C29.7141 37.4953 29.7918 37.6828 29.7918 37.8783V43.6476C29.7918 43.8432 29.7141 44.0307 29.5758 44.169C29.4376 44.3072 29.25 44.3849 29.0545 44.3849C28.859 44.3849 28.6715 44.3072 28.5332 44.169C28.3949 44.0307 28.3173 43.8432 28.3173 43.6476V37.8783ZM24.6933 37.8783C24.6933 37.6828 24.771 37.4953 24.9092 37.357C25.0475 37.2188 25.235 37.1411 25.4305 37.1411C25.6261 37.1411 25.8136 37.2188 25.9519 37.357C26.0901 37.4953 26.1678 37.6828 26.1678 37.8783V43.6476C26.1678 43.8432 26.0901 44.0307 25.9519 44.169C25.8136 44.3072 25.6261 44.3849 25.4305 44.3849C25.235 44.3849 25.0475 44.3072 24.9092 44.169C24.771 44.0307 24.6933 43.8432 24.6933 43.6476V37.8783ZM67.2627 54.812H62.8738C63.2625 54.3908 63.478 53.8385 63.4772 53.2654C63.4772 52.8912 63.3873 52.5381 63.2277 52.2264H66.6841C67.0024 52.2264 67.2627 51.9661 67.2627 51.6478V49.8399C67.2627 49.5216 67.0024 49.2613 66.6841 49.2613H22.3159C21.9976 49.2613 21.7373 49.5216 21.7373 49.8399V51.6478C21.7373 51.9661 21.9976 52.2264 22.3159 52.2264H24.8506C24.6861 52.548 24.6006 52.9042 24.6011 53.2654C24.6003 53.8385 24.8158 54.3908 25.2046 54.812H21.7373C21.5417 54.812 21.3542 54.8897 21.2159 55.0279C21.0777 55.1662 21 55.3537 21 55.5492C21 55.7448 21.0777 55.9323 21.2159 56.0706C21.3542 56.2088 21.5417 56.2865 21.7373 56.2865H67.2627C67.4583 56.2865 67.6458 56.2088 67.7841 56.0706C67.9223 55.9323 68 55.7448 68 55.5492C68 55.3537 67.9223 55.1662 67.7841 55.0279C67.6458 54.8897 67.4583 54.812 67.2627 54.812ZM28.5654 54.812C28.9542 54.3908 29.1697 53.8385 29.1689 53.2654C29.1689 52.8912 29.0789 52.5381 28.9194 52.2264H33.5722C33.4078 52.548 33.3222 52.9042 33.3228 53.2654C33.322 53.8385 33.5375 54.3908 33.9263 54.812H28.5654ZM37.287 54.812C37.6757 54.3909 37.8913 53.8385 37.8905 53.2654C37.8905 52.8912 37.8005 52.5381 37.641 52.2264H50.4374C50.2729 52.548 50.1874 52.9042 50.1879 53.2654C50.1871 53.8385 50.4027 54.3909 50.7915 54.812H37.287ZM54.1521 54.812C54.5408 54.3909 54.7564 53.8385 54.7556 53.2654C54.7556 52.8912 54.6655 52.5381 54.5061 52.2264H59.1589C58.9945 52.548 58.909 52.9042 58.9095 53.2654C58.9087 53.8385 59.1242 54.3908 59.5129 54.812H54.1521Z" fill="white"/>
  </symbol>
  <symbol id="svg_card_2" viewBox="0 0 89 89" fill="none" xmlns="http://www.w3.org/2000/svg">
    <path d="M66.1729 22.9631H22.8271C22.3427 22.9638 21.8784 23.1565 21.5359 23.499C21.1934 23.8415 21.0007 24.3059 21 24.7903V52.4321C21.0004 52.9167 21.1931 53.3812 21.5356 53.7239C21.8781 54.0666 22.3426 54.2594 22.8271 54.2601H66.1729C66.6574 54.2594 67.1219 54.0666 67.4644 53.7239C67.8069 53.3812 67.9996 52.9167 68 52.4321V24.7903C67.9993 24.3059 67.8066 23.8415 67.4641 23.499C67.1216 23.1565 66.6573 22.9638 66.1729 22.9631ZM65.4821 50.903C65.4821 51.1255 65.3937 51.339 65.2363 51.4964C65.0789 51.6538 64.8655 51.7422 64.6429 51.7422H24.3571C24.1346 51.7422 23.9211 51.6538 23.7637 51.4964C23.6063 51.339 23.5179 51.1255 23.5179 50.903V26.3203C23.5179 26.0977 23.6063 25.8842 23.7637 25.7268C23.9211 25.5694 24.1346 25.481 24.3571 25.481H64.6429C64.8655 25.481 65.0789 25.5694 65.2363 25.7268C65.3937 25.8842 65.4821 26.0977 65.4821 26.3203V50.903ZM61.2555 55.9387H64.6026V66.037H61.2555V55.9387ZM24.3974 55.9387H27.7445V66.037H24.3974V55.9387Z" fill="white"/>
    <path d="M56.8115 41.7455C56.9176 41.7504 57.0236 41.7337 57.1231 41.6965C57.2226 41.6593 57.3135 41.6023 57.3903 41.5289C57.4671 41.4556 57.5283 41.3674 57.5701 41.2697C57.6119 41.1721 57.6334 41.067 57.6334 40.9607C57.6334 40.8545 57.6119 40.7494 57.5701 40.6518C57.5283 40.5541 57.4671 40.4659 57.3903 40.3926C57.3135 40.3192 57.2226 40.2622 57.1231 40.225C57.0236 40.1878 56.9176 40.1711 56.8115 40.176C56.6097 40.1853 56.4192 40.2721 56.2797 40.4182C56.1401 40.5644 56.0623 40.7587 56.0623 40.9607C56.0623 41.1628 56.1401 41.3571 56.2797 41.5032C56.4192 41.6494 56.6097 41.7361 56.8115 41.7455Z" fill="white"/>
    <path d="M25.1965 50.0637H63.8037V27.1595H25.1965V50.0637ZM50.4179 32.181C51.5863 32.1823 52.7065 32.6471 53.5327 33.4733C54.3589 34.2995 54.8237 35.4197 54.825 36.5881C54.825 38.8181 51.6231 41.8311 50.9811 42.4127C50.8267 42.5524 50.626 42.6297 50.4179 42.6297C50.2098 42.6297 50.0091 42.5524 49.8547 42.4127C49.2127 41.8311 46.0108 38.8181 46.0108 36.5881C46.0119 35.4196 46.4766 34.2993 47.3029 33.473C48.1291 32.6468 49.2494 32.1821 50.4179 32.181ZM30.7165 27.7957C31.8849 27.7971 33.0051 28.2618 33.8313 29.088C34.6575 29.9142 35.1223 31.0344 35.1236 32.2028C35.1236 34.2037 32.552 36.829 31.5583 37.769V41.059C32.0324 41.2308 32.4422 41.544 32.7324 41.9564C33.0225 42.3687 33.179 42.8603 33.1807 43.3645C33.1807 44.0678 32.881 44.6989 32.4068 45.148C32.902 45.6171 33.5651 45.8932 34.2692 45.8932C34.9918 45.8932 35.6725 45.6112 36.1845 45.0984C36.4372 44.8476 36.6377 44.549 36.7743 44.2201C36.9108 43.8912 36.9808 43.5385 36.9801 43.1824C36.9801 42.1408 37.383 41.1639 38.1157 40.432C38.4056 40.1568 38.7356 39.927 39.0943 39.7505C39.181 39.1684 39.4734 38.6367 39.9186 38.2517C40.3637 37.8668 40.9321 37.6541 41.5206 37.6523C42.1035 37.6536 42.667 37.8618 43.1107 38.2397C43.5545 38.6177 43.8496 39.1409 43.9437 39.7161C45.7515 40.4958 46.976 42.2919 46.976 44.2902C46.9737 44.8516 47.1717 45.3954 47.5345 45.8239C47.8972 46.2523 48.4009 46.5373 48.955 46.6276C49.1323 46.1623 49.4465 45.7616 49.8561 45.4786C50.2658 45.1955 50.7517 45.0434 51.2496 45.0422C51.6498 45.0423 52.0438 45.1401 52.3976 45.327C52.7514 45.5139 53.0543 45.7843 53.2799 46.1148C53.8533 45.7918 54.343 45.3389 54.7099 44.7925C55.0767 44.2461 55.3105 43.6213 55.3924 42.9683C55.0703 42.7419 54.8074 42.4415 54.6257 42.0922C54.444 41.743 54.3489 41.3553 54.3483 40.9616C54.3492 40.3086 54.609 39.6825 55.0707 39.2208C55.5325 38.759 56.1586 38.4992 56.8116 38.4983C57.3949 38.4983 57.9253 38.7106 58.3475 39.0514C58.5162 39.0254 58.6866 39.0119 58.8594 39.0119H60.3366C60.5592 39.0119 60.7727 39.1004 60.9301 39.2578C61.0874 39.4152 61.1759 39.6286 61.1759 39.8512C61.1759 40.0738 61.0874 40.2873 60.9301 40.4447C60.7727 40.6021 60.5592 40.6905 60.3366 40.6905H59.2472C59.2573 40.7803 59.2749 40.8684 59.2749 40.9616C59.2729 41.5748 59.0419 42.1651 58.6272 42.6168C58.2124 43.0684 57.6439 43.3489 57.0332 43.4031C56.8743 44.3504 56.4862 45.2446 55.9027 46.0076C55.3192 46.7706 54.5579 47.3794 53.6852 47.7808C53.6191 48.3814 53.3341 48.9365 52.8847 49.3404C52.4353 49.7443 51.853 49.9686 51.2488 49.9705C50.7368 49.9688 50.2381 49.8074 49.8223 49.5088C49.4064 49.2101 49.0941 48.7891 48.929 48.3045C48.005 48.2181 47.1399 47.8131 46.4817 47.1589C46.1044 46.7829 45.8053 46.3359 45.6019 45.8436C45.3985 45.3514 45.2947 44.8237 45.2966 44.291C45.2966 43.0875 44.6243 41.9973 43.6037 41.4173C43.3839 41.7724 43.0772 42.0656 42.7126 42.2693C42.3479 42.473 41.9374 42.5804 41.5198 42.5814C41.115 42.5814 40.7165 42.4814 40.3596 42.2905C40.0027 42.0996 39.6984 41.8236 39.4736 41.487C39.414 41.5348 39.3494 41.5734 39.294 41.6272C39.0907 41.8318 38.9298 42.0747 38.8207 42.3417C38.7115 42.6087 38.6561 42.8947 38.6578 43.1832C38.6593 43.7598 38.5463 44.3309 38.3254 44.8635C38.1046 45.3962 37.7803 45.8797 37.3712 46.286C36.927 46.73 36.3927 47.0736 35.8044 47.2935C35.2161 47.5134 34.5875 47.6046 33.961 47.5608C33.3344 47.5171 32.7246 47.3394 32.1725 47.0399C31.6205 46.7403 31.1392 46.3259 30.761 45.8244C30.7459 45.8244 30.7308 45.8286 30.7157 45.8286C30.0624 45.8277 29.4362 45.5678 28.9742 45.1059C28.5123 44.644 28.2524 44.0177 28.2515 43.3645C28.2529 42.8594 28.4098 42.367 28.7008 41.9542C28.9918 41.5414 29.4028 41.2283 29.8781 41.0573V37.7732C28.8886 36.8374 26.3077 34.207 26.3077 32.2028C26.3091 31.0344 26.7738 29.9142 27.6 29.088C28.4262 28.2618 29.5464 27.7971 30.7148 27.7957H30.7165Z" fill="white"/>
    <path d="M41.5204 40.9021C41.9543 40.9021 42.306 40.5504 42.306 40.1165C42.306 39.6826 41.9543 39.3309 41.5204 39.3309C41.0866 39.3309 40.7349 39.6826 40.7349 40.1165C40.7349 40.5504 41.0866 40.9021 41.5204 40.9021Z" fill="white"/>
    <path d="M30.7163 42.5798C30.5079 42.5798 30.3079 42.6626 30.1605 42.81C30.0131 42.9574 29.9303 43.1573 29.9303 43.3658C29.9303 43.5743 30.0131 43.7742 30.1605 43.9216C30.3079 44.069 30.5079 44.1518 30.7163 44.1518C30.9248 44.1518 31.1247 44.069 31.2721 43.9216C31.4195 43.7742 31.5023 43.5743 31.5023 43.3658C31.5023 43.1573 31.4195 42.9574 31.2721 42.81C31.1247 42.6626 30.9248 42.5798 30.7163 42.5798ZM51.2494 48.2911C51.4515 48.2818 51.6422 48.195 51.7819 48.0487C51.9216 47.9024 51.9995 47.7079 51.9995 47.5056C51.9995 47.3033 51.9216 47.1088 51.7819 46.9625C51.6422 46.8162 51.4515 46.7294 51.2494 46.72C51.0425 46.7204 50.8442 46.8025 50.6974 46.9483C50.5506 47.0941 50.4673 47.292 50.4655 47.4989L50.4664 47.5047L50.4647 47.5115C50.4665 47.7184 50.5498 47.9163 50.6965 48.0623C50.8433 48.2083 51.0425 48.2905 51.2494 48.2911ZM33.4448 32.2029C33.4448 30.698 32.2211 29.4744 30.7163 29.4744C29.2115 29.4744 27.9878 30.698 27.9878 32.2029C27.9878 33.1605 29.4389 34.975 30.7163 36.2466C31.9937 34.9734 33.4448 33.158 33.4448 32.2029ZM30.1229 32.6402C29.9635 32.4807 29.8795 32.2625 29.8795 32.0443C29.8795 31.9352 29.8963 31.826 29.9383 31.7253C29.9886 31.6246 30.0474 31.5323 30.1229 31.4484C30.1985 31.3728 30.2908 31.3141 30.3915 31.2721C30.702 31.1462 31.0713 31.2218 31.3063 31.4484C31.3903 31.5323 31.449 31.6246 31.491 31.7253C31.5329 31.826 31.5581 31.9352 31.5581 32.0443C31.5581 32.1534 31.5329 32.2625 31.491 32.3632C31.449 32.4723 31.3903 32.5646 31.3063 32.6402C31.1553 32.7912 30.937 32.8835 30.7188 32.8835C30.6061 32.8856 30.4943 32.8627 30.3915 32.8164C30.2914 32.7757 30.2001 32.7158 30.1229 32.6402ZM53.1471 36.5882C53.1471 35.0833 51.9234 33.8596 50.4185 33.8596C48.9137 33.8596 47.69 35.0833 47.69 36.5882C47.69 37.5433 49.1411 39.3578 50.4185 40.631C51.6959 39.3578 53.1471 37.5424 53.1471 36.5882ZM49.821 37.0632C49.7454 36.9877 49.6867 36.8953 49.6447 36.7946C49.6028 36.6939 49.5776 36.5848 49.5776 36.4757C49.5803 36.2534 49.6673 36.0404 49.821 35.8798C50.1399 35.5693 50.7022 35.5693 51.0128 35.8798C51.0883 35.9553 51.147 36.0477 51.189 36.1484C51.2394 36.2575 51.2561 36.3582 51.2561 36.4757C51.2561 36.5848 51.2394 36.6939 51.189 36.7946C51.147 36.8953 51.0883 36.9877 51.0128 37.0632C50.8533 37.2227 50.6351 37.315 50.4169 37.315C50.1987 37.315 49.9804 37.2227 49.821 37.0632Z" fill="white"/>
  </symbol>
  <symbol id="svg_card_3" viewBox="0 0 89 89" fill="none" xmlns="http://www.w3.org/2000/svg">
    <path d="M51.7477 43.4385L49.0389 42.4868C48.8193 41.7547 48.5265 41.0226 48.0872 40.2905L49.3318 37.7282C49.4782 37.4354 49.405 37.0693 49.1854 36.9229L46.0374 33.775C45.8178 33.5553 45.4517 33.4821 45.2321 33.6285L42.6698 34.8731C41.9377 34.507 41.2056 34.2142 40.4735 33.9214L39.5218 31.2126C39.4486 30.9198 39.1558 30.7002 38.8629 30.7002H34.3972C34.1044 30.7002 33.8115 30.9198 33.6651 31.2126L32.7134 33.9214C31.9813 34.141 31.2492 34.4338 30.5171 34.8731L28.028 33.5553C27.7352 33.4089 27.4424 33.4821 27.1495 33.7017L24.0016 36.8497C23.7819 37.0693 23.7087 37.4354 23.8551 37.655L25.0997 40.2173C24.7336 40.9494 24.4408 41.6815 24.2212 42.4136L21.5125 43.3653C21.2196 43.5117 21 43.8045 21 44.0974V48.5631C21 48.8559 21.2196 49.1488 21.5125 49.2952L24.2212 50.2469C24.4408 50.979 24.7336 51.7111 25.1729 52.4432L23.9283 55.0055C23.7819 55.2983 23.8551 55.6644 24.0748 55.884L27.2227 59.032C27.4424 59.2516 27.8084 59.3248 28.1012 59.1784L30.6636 57.9338C31.3956 58.2999 32.1277 58.5927 32.8598 58.8855L33.8115 61.5943C33.8847 61.8871 34.1776 62.1067 34.4704 62.1067H38.9361C39.229 62.1067 39.5218 61.8871 39.595 61.5943L40.5467 58.8855C41.2788 58.6659 42.0109 58.3731 42.743 57.9338L45.3053 59.1784C45.5981 59.3248 45.891 59.2516 46.1106 59.032L49.2586 55.884C49.4782 55.6644 49.5514 55.2983 49.405 55.0055L48.0872 52.37C48.4533 51.6379 48.7461 50.9058 49.0389 50.1737L51.7477 49.222C52.0405 49.1488 52.2601 48.8559 52.2601 48.4899V44.0242C52.2601 43.8045 52.0405 43.5117 51.7477 43.4385ZM36.5935 52.5896C33.1526 52.5896 30.3707 49.8077 30.3707 46.3669C30.3707 42.926 33.1526 40.1441 36.5935 40.1441C40.0343 40.1441 42.8162 42.926 42.8162 46.3669C42.8162 49.7345 40.0343 52.5896 36.5935 52.5896ZM67.3411 28.87L65.8769 28.3575C65.7305 27.9915 65.5841 27.6254 65.4377 27.3326L66.0966 25.9416C66.243 25.6488 66.1698 25.3559 65.9502 25.0631L64.1931 23.2329C63.9735 23.0133 63.6075 22.9401 63.3879 23.0865L61.9969 23.7454C61.6308 23.5989 61.338 23.4525 60.972 23.3061L60.4595 21.8419C60.3863 21.5491 60.0935 21.3295 59.8006 21.3295H57.1651C56.8723 21.3295 56.5794 21.5491 56.433 21.8419L55.9206 23.3061C55.5545 23.4525 55.1885 23.5989 54.8956 23.7454L53.5047 23.0865C53.2118 22.9401 52.8458 23.0133 52.6262 23.2329L50.796 25.0631C50.5763 25.2827 50.5031 25.6488 50.6495 25.9416L51.3084 27.3326C51.162 27.6986 51.0156 27.9915 50.8692 28.3575L49.405 28.87C49.1122 28.9432 48.8925 29.236 48.8925 29.5288V32.1644C48.8925 32.4572 49.1122 32.75 49.405 32.8232L50.8692 33.3357L51.3084 34.4338L50.6495 35.7516C50.5031 36.0444 50.5763 36.4105 50.796 36.6301L52.6262 38.4603C52.8458 38.6799 53.2118 38.7531 53.5047 38.6067L54.8956 37.9478C55.2617 38.0943 55.6277 38.2407 55.9206 38.3871L56.433 39.8513C56.5062 40.1441 56.7991 40.3637 57.1651 40.3637H59.8006C60.0935 40.3637 60.3863 40.1441 60.4595 39.8513L60.972 38.3871C61.338 38.2407 61.7041 38.0943 61.9969 37.9478L63.3879 38.6067C63.6807 38.7531 63.9735 38.6799 64.2664 38.4603L66.0966 36.6301C66.3162 36.4105 66.3894 36.0444 66.243 35.7516L65.5841 34.3606L66.0234 33.2625L67.4875 32.75C67.7804 32.6768 68 32.384 68 32.0912V29.4556C67.8536 29.236 67.634 28.9432 67.3411 28.87ZM58.4097 34.507C56.3598 34.507 54.7492 32.8964 54.7492 30.8466C54.7492 28.87 56.3598 27.1862 58.4097 27.1862C60.3863 27.1862 62.0701 28.7968 62.0701 30.8466C62.0701 32.8964 60.3863 34.507 58.4097 34.507Z" fill="white"/>
    <path d="M67.3412 52.736L65.2913 52.004C65.1449 51.4183 64.9253 50.9058 64.6325 50.3934L65.5842 48.4167C65.7306 48.1239 65.6574 47.8311 65.4378 47.6114L62.9487 45.1223C62.729 44.9027 62.363 44.8295 62.0702 44.9759L60.1667 46.0008C59.6543 45.708 59.0686 45.4884 58.5561 45.342L57.8973 43.2921C57.824 42.9993 57.5312 42.7797 57.1652 42.7797H53.6511C53.5047 42.7797 53.4315 42.7797 53.2851 42.8529C53.5047 43.2189 53.6511 43.6582 53.6511 44.0974V48.5632C53.6511 49.5149 53.0655 50.3202 52.187 50.613L50.1371 51.3451C49.9907 51.7111 49.8443 52.0772 49.6979 52.37L50.6496 54.2734C51.0888 55.1519 50.9424 56.1037 50.2103 56.8357L47.0624 59.9837C46.6963 60.3498 46.2571 60.5694 45.8178 60.6426L45.1589 61.9603C45.0125 62.2532 45.0857 62.546 45.3054 62.7656L47.7945 65.2547C48.0141 65.4744 48.3801 65.5476 48.673 65.4012L50.6496 64.4494C51.1621 64.7423 51.7477 64.9619 52.2602 65.1083L52.9923 67.1582C53.0655 67.451 53.3583 67.6706 53.7244 67.6706H57.2384C57.5312 67.6706 57.824 67.451 57.9705 67.1582L58.6293 65.1083C59.215 64.8887 59.7275 64.6691 60.2399 64.4494L62.2166 65.4012C62.5094 65.5476 62.8022 65.4744 63.0951 65.2547L65.5842 62.7656C65.8038 62.546 65.877 62.18 65.7306 61.9603L64.7789 59.9837C65.0717 59.4713 65.2913 58.8856 65.4378 58.3731L67.4876 57.641C67.7804 57.5678 68.0001 57.275 68.0001 56.9089V53.3949C67.8536 53.1021 67.634 52.8825 67.3412 52.736ZM56.1402 60.1301C55.4961 60.1301 54.8583 60.0033 54.2632 59.7568C53.6681 59.5103 53.1274 59.149 52.6719 58.6935C52.2164 58.238 51.8551 57.6973 51.6086 57.1022C51.3621 56.5071 51.2353 55.8693 51.2353 55.2251C51.2353 54.581 51.3621 53.9432 51.6086 53.3481C51.8551 52.753 52.2164 52.2123 52.6719 51.7568C53.1274 51.3013 53.6681 50.94 54.2632 50.6935C54.8583 50.447 55.4961 50.3202 56.1402 50.3202C57.4411 50.3202 58.6887 50.8369 59.6086 51.7568C60.5285 52.6767 61.0452 53.9243 61.0452 55.2251C61.0452 56.526 60.5285 57.7736 59.6086 58.6935C58.6887 59.6134 57.4411 60.1301 56.1402 60.1301Z" fill="white"/>
  </symbol>
  <symbol id="svg_card_4" viewBox="0 0 89 89" fill="none" xmlns="http://www.w3.org/2000/svg">
    <path d="M50.3564 47.3526C50.3564 47.2613 50.3927 47.1737 50.4573 47.1092C50.5219 47.0446 50.6095 47.0083 50.7008 47.0083C50.7921 47.0083 50.8797 47.0446 50.9443 47.1092C51.0088 47.1737 51.0451 47.2613 51.0451 47.3526C51.0451 47.444 51.0088 47.5316 50.9443 47.5961C50.8797 47.6607 50.7921 47.697 50.7008 47.697C50.6095 47.697 50.5219 47.6607 50.4573 47.5961C50.3927 47.5316 50.3564 47.444 50.3564 47.3526Z" fill="white"/>
    <path fill-rule="evenodd" clip-rule="evenodd" d="M47.2575 26.3774C46.8009 26.3774 46.363 26.5588 46.0401 26.8817C45.7172 27.2046 45.5358 27.6425 45.5358 28.0991C45.5358 28.5558 45.7172 28.9937 46.0401 29.3166C46.363 29.6395 46.8009 29.8209 47.2575 29.8209H48.9792V32.0818C48.9792 32.1149 48.9802 32.1472 48.982 32.1789C46.1249 32.5023 43.4172 33.6262 41.171 35.4212L41.1055 35.3524L39.5009 33.7477L40.2309 33.017C40.5515 32.6937 40.731 32.2566 40.73 31.8012C40.7291 31.3459 40.5479 30.9095 40.2259 30.5875C39.904 30.2655 39.4677 30.0841 39.0123 30.0831C38.557 30.082 38.1198 30.2613 37.7964 30.5818L35.8557 32.5226L35.8488 32.5294L35.8412 32.5363L33.9005 34.4777C33.5869 34.8024 33.4134 35.2373 33.4173 35.6888C33.4212 36.1402 33.6023 36.572 33.9215 36.8912C34.2407 37.2105 34.6726 37.3915 35.124 37.3955C35.5754 37.3994 36.0103 37.2258 36.335 36.9122L37.0657 36.1822L38.6704 37.7868C38.6942 37.8107 38.7186 37.8337 38.7434 37.8557C36.9574 40.1046 35.8418 42.8115 35.5246 45.6656C35.2074 48.5198 35.7014 51.4056 36.9501 53.9917C38.1987 56.5778 40.1513 58.7594 42.5836 60.286C45.016 61.8127 47.8295 62.6225 50.7013 62.6225C53.573 62.6225 56.3866 61.8127 58.819 60.286C61.2513 58.7594 63.2039 56.5778 64.4525 53.9917C65.7011 51.4056 66.1952 48.5198 65.878 45.6656C65.5608 42.8115 64.4452 40.1046 62.6592 37.8557C62.6836 37.8337 62.7074 37.8107 62.7309 37.7868L64.3355 36.1822L65.0662 36.9129C65.3895 37.2335 65.8266 37.413 66.282 37.412C66.7373 37.4111 67.1737 37.2298 67.4957 36.9079C67.8177 36.586 67.9991 36.1497 68.0001 35.6943C68.0012 35.239 67.8219 34.8018 67.5014 34.4784L65.5772 32.5542L65.5668 32.5432L65.5531 32.5294L65.5393 32.5157L65.529 32.506L63.6055 30.5825C63.2808 30.2689 62.8459 30.0954 62.3944 30.0993C61.943 30.1032 61.5112 30.2843 61.192 30.6035C60.8727 30.9227 60.6917 31.3546 60.6877 31.806C60.6838 32.2574 60.8574 32.6923 61.171 33.017L61.901 33.747L60.2964 35.3517L60.2309 35.4205C57.9844 33.6261 55.2769 32.5024 52.4199 32.1789L52.4227 32.0825V29.8209H54.1444C54.601 29.8209 55.0389 29.6395 55.3618 29.3166C55.6847 28.9937 55.8661 28.5558 55.8661 28.0991C55.8661 27.6425 55.6847 27.2046 55.3618 26.8817C55.0389 26.5588 54.601 26.3774 54.1444 26.3774H47.2575ZM56.6718 42.3824C56.8145 42.2034 56.92 41.9977 56.9823 41.7773C57.0445 41.557 57.0621 41.3265 57.0342 41.0992C57.0062 40.872 56.9332 40.6526 56.8195 40.454C56.7057 40.2553 56.5535 40.0813 56.3717 39.9421C56.1898 39.803 55.9821 39.7015 55.7606 39.6437C55.5391 39.5858 55.3083 39.5727 55.0816 39.6051C54.855 39.6375 54.6371 39.7148 54.4407 39.8324C54.2443 39.9501 54.0733 40.1057 53.9378 40.2902L51.3848 43.6262C50.7756 43.5146 50.1484 43.5542 49.558 43.7413C48.9677 43.9284 48.4322 44.2575 47.9985 44.6996C47.5649 45.1417 47.2462 45.6834 47.0705 46.2772C46.8948 46.8711 46.8673 47.499 46.9906 48.1059C47.1139 48.7128 47.3841 49.2802 47.7775 49.7585C48.171 50.2367 48.6757 50.6112 49.2475 50.8491C49.8193 51.087 50.4407 51.1811 51.0573 51.1231C51.6739 51.0651 52.2668 50.8568 52.7842 50.5165L59.4272 54.2959C59.8241 54.5218 60.2945 54.5807 60.7348 54.4598C61.1752 54.3388 61.5495 54.0479 61.7753 53.651C62.0012 53.2541 62.0601 52.7837 61.9391 52.3434C61.8182 51.903 61.5273 51.5288 61.1304 51.3029L54.4853 47.5221C54.488 47.466 54.4894 47.4096 54.4894 47.3526C54.4894 46.7673 54.3565 46.2136 54.1196 45.7191L56.6718 42.3824Z" fill="white"/>
    <path d="M24.4434 58.0568C24.4434 57.6915 24.5885 57.3412 24.8468 57.0829C25.1051 56.8246 25.4555 56.6794 25.8208 56.6794H32.7076C33.0729 56.6794 33.4232 56.8246 33.6815 57.0829C33.9399 57.3412 34.085 57.6915 34.085 58.0568C34.085 58.4221 33.9399 58.7724 33.6815 59.0308C33.4232 59.2891 33.0729 59.4342 32.7076 59.4342H25.8208C25.4555 59.4342 25.1051 59.2891 24.8468 59.0308C24.5885 58.7724 24.4434 58.4221 24.4434 58.0568ZM23.7547 51.17C23.3894 51.17 23.0391 51.3151 22.7808 51.5734C22.5225 51.8317 22.3774 52.182 22.3774 52.5473C22.3774 52.9126 22.5225 53.263 22.7808 53.5213C23.0391 53.7796 23.3894 53.9247 23.7547 53.9247H30.6416C31.0069 53.9247 31.3572 53.7796 31.6155 53.5213C31.8738 53.263 32.0189 52.9126 32.0189 52.5473C32.0189 52.182 31.8738 51.8317 31.6155 51.5734C31.3572 51.3151 31.0069 51.17 30.6416 51.17H23.7547ZM30.6416 47.0379C30.6416 47.4032 30.4964 47.7535 30.2381 48.0118C29.9798 48.2701 29.6295 48.4153 29.2642 48.4153H22.3774C22.0121 48.4153 21.6617 48.2701 21.4034 48.0118C21.1451 47.7535 21 47.4032 21 47.0379C21 46.6726 21.1451 46.3223 21.4034 46.0639C21.6617 45.8056 22.0121 45.6605 22.3774 45.6605H29.2642C29.6295 45.6605 29.9798 45.8056 30.2381 46.0639C30.4964 46.3223 30.6416 46.6726 30.6416 47.0379Z" fill="white"/>
  </symbol>
  <symbol id="svg_card_5" viewBox="0 0 89 89" fill="none" xmlns="http://www.w3.org/2000/svg">
    <path fill-rule="evenodd" clip-rule="evenodd" d="M45.5043 24.8501C47.3083 25.2798 49.0323 25.9945 50.6112 26.9672L53.9297 25.4934L57.8409 29.4046L56.3674 32.722C57.3405 34.3012 58.0553 36.0257 58.485 37.8302L61.8706 39.1333V44.6645L60.7251 45.1054C60.0824 44.4777 59.2044 44.0898 58.2386 44.0898H53.5923C53.7217 43.3667 53.7865 42.6335 53.7862 41.8989C53.7862 35.0777 48.2565 29.5479 41.4352 29.5479C34.6139 29.5479 29.0842 35.0777 29.0842 41.8989C29.0842 48.5585 34.3552 53.9862 40.9528 54.2397V55.1489C40.9528 56.253 41.3812 57.1916 42.0883 57.9612V62.3341H38.6696L37.3662 58.9477C35.5622 58.518 33.8382 57.8033 32.2593 56.8305L28.9408 58.3045L25.0297 54.3933L26.5031 51.0758C25.5301 49.4965 24.8153 47.7721 24.3856 45.9676L21 44.6646V39.1334L24.3862 37.83C24.8158 36.0258 25.5306 34.3017 26.5035 32.7228L25.0298 29.4047L28.9408 25.4934L32.2593 26.9672C33.8382 25.9945 35.5622 25.2798 37.3662 24.8501L38.6697 21.4636H44.2008L45.5043 24.8501ZM48.6068 49.6477V52.7547C48.6068 53.4135 49.1459 53.9526 49.8047 53.9526H60.7147C61.3736 53.9526 61.9126 53.4134 61.9126 52.7547V49.6477H48.6068ZM52.9115 59.8412C52.9115 61.1381 53.9629 62.1894 55.2598 62.1894C56.5567 62.1894 57.608 61.1381 57.608 59.8412C57.608 58.5484 56.5608 57.4929 55.2598 57.4929C53.9588 57.493 52.9115 58.5484 52.9115 59.8412ZM66.8643 57.2899C67.5351 56.7392 68 56.0516 68 55.1489V50.6031C68 50.0769 67.5707 49.6477 67.0445 49.6477H63.4794V52.7547C63.4794 54.2781 62.2383 55.5192 60.7148 55.5192H49.8047C48.2812 55.5192 47.0402 54.2782 47.0402 52.7547V49.6477H43.4749C42.9487 49.6477 42.5195 50.0769 42.5195 50.6031V55.149C42.5195 56.0515 42.9844 56.7392 43.6551 57.2898C45.4767 58.7849 49.1097 59.2015 51.3713 59.3864C51.5968 57.4392 53.2518 55.9264 55.2598 55.9264C57.2671 55.9264 58.9216 57.4382 59.1479 59.3844C61.4054 59.1991 65.0458 58.7825 66.8643 57.2899ZM43.6551 59.1814V65.6716C43.6551 66.6972 44.4942 67.5364 45.5198 67.5364H64.9994C66.0251 67.5364 66.8642 66.6972 66.8642 65.6716V59.1815C65.1893 60.1197 62.2682 60.7162 59.0085 60.9714C58.5233 62.5823 57.0283 63.7561 55.2597 63.7561C53.491 63.7561 51.996 62.5823 51.5107 60.9715C48.2515 60.7164 45.3303 60.1199 43.6551 59.1814ZM60.234 48.081V47.652C60.234 46.5545 59.3361 45.6565 58.2386 45.6565H52.2811C51.1836 45.6565 50.2856 46.5545 50.2856 47.652V48.081H52.0522V47.652C52.0522 47.5296 52.1588 47.4231 52.2812 47.4231H58.2387C58.3611 47.4231 58.4676 47.5296 58.4676 47.652V48.081H60.234ZM34.2633 40.3902C33.4159 41.2376 33.4158 42.6243 34.2633 43.4717L37.6524 46.8608C38.6104 47.8188 40.0556 48.2578 41.1359 47.1775L48.6075 39.7059C49.4549 38.8584 49.4549 37.4718 48.6075 36.6245V36.6244C47.7601 35.777 46.3734 35.777 45.526 36.6244L39.5526 42.5979L37.3448 40.3901C36.4973 39.5427 35.1107 39.5428 34.2633 40.3902Z" fill="white"/>
  </symbol>
  <symbol id="svg_card_6" viewBox="0 0 89 89" fill="none" xmlns="http://www.w3.org/2000/svg">
    <path d="M34.1076 34.1805L35.7008 34.4702C35.8456 35.0495 36.1353 35.7013 36.425 36.2806L35.4835 37.6565C35.2663 37.9462 35.3387 38.3083 35.5559 38.598L37.8009 40.8429C38.0181 41.1326 38.4527 41.1326 38.7423 40.9153L40.1183 39.9739C40.6976 40.2636 41.2769 40.5532 41.8563 40.6981L42.146 42.2913C42.2184 42.6534 42.508 42.8706 42.8701 42.8706H46.0565C46.4186 42.8706 46.7083 42.6534 46.7807 42.2913L47.0703 40.6981C47.6497 40.5532 48.3014 40.2636 48.8084 39.9739L50.1843 40.9153C50.474 41.1326 50.8361 41.0602 51.1257 40.8429L53.3707 38.598C53.6604 38.3807 53.6604 37.9462 53.4431 37.6565L52.5017 36.2806C52.7913 35.7013 53.081 35.1219 53.2258 34.5426L54.819 34.2529C55.1811 34.1805 55.3984 33.8908 55.3984 33.5287V30.3424C55.3984 29.9803 55.1811 29.6906 54.819 29.6182L53.2258 29.3285C53.081 28.7492 52.7913 28.0974 52.5017 27.5181L53.4431 26.2146C53.6604 25.9249 53.5879 25.5628 53.3707 25.2731L51.1257 23.0282C50.9085 22.8109 50.474 22.7385 50.1843 22.9558L48.8084 23.8972C48.229 23.6075 47.6497 23.3179 47.0703 23.173L46.7807 21.5798C46.7083 21.2177 46.4186 21.0005 46.0565 21.0005H42.8701C42.508 21.0005 42.2184 21.2902 42.146 21.5798L41.8563 23.173C41.2045 23.3179 40.6252 23.6075 40.0458 23.8972L38.7423 22.9558C38.5975 22.7385 38.2354 22.7385 37.9457 22.9558L35.7008 25.2007C35.4835 25.418 35.4111 25.8525 35.6284 26.1421L36.5698 27.5181C36.2801 28.0974 35.9905 28.6768 35.8456 29.2561L34.2524 29.5458C33.8903 29.6182 33.6731 29.9079 33.6731 30.2699V33.4563C33.5283 33.8184 33.8179 34.1081 34.1076 34.1805ZM44.5357 27.0112C47.2876 27.0112 49.4601 29.2561 49.4601 31.9356C49.4601 34.6874 47.2152 36.86 44.5357 36.86C41.7839 36.86 39.6113 34.615 39.6113 31.9356C39.6113 29.1837 41.7839 27.0112 44.5357 27.0112ZM30.0522 48.2295C32.9489 48.2295 35.3387 45.8397 35.3387 42.943C35.3387 40.0463 32.9489 37.6565 30.0522 37.6565C27.1555 37.6565 24.7657 40.0463 24.7657 42.943C24.7657 45.8397 27.0831 48.2295 30.0522 48.2295ZM39.032 58.4404C39.032 53.4436 34.9766 49.3882 30.0522 49.3882C25.0554 49.3882 21 53.4436 21 58.4404C21 58.8025 21.2897 59.1646 21.7242 59.1646H38.3078C38.7423 59.1646 39.032 58.8749 39.032 58.4404ZM53.7328 42.943C53.7328 45.8397 56.1226 48.2295 59.0193 48.2295C61.916 48.2295 64.3057 45.8397 64.3057 42.943C64.3057 40.0463 61.916 37.6565 59.0193 37.6565C56.1226 37.6565 53.7328 39.9739 53.7328 42.943ZM44.5357 58.2956C39.5389 58.2956 35.4835 62.351 35.4835 67.2754C35.4835 67.7099 35.7732 67.9995 36.2077 67.9995H52.7913C53.1534 67.9995 53.5155 67.7099 53.5155 67.2754C53.5879 62.2785 49.5325 58.2956 44.5357 58.2956ZM59.0193 49.4606C54.0224 49.4606 49.9671 53.516 49.9671 58.5128C49.9671 58.8749 50.2567 59.237 50.6912 59.237H67.2749C67.7094 59.237 67.999 58.8749 67.999 58.5128C68.0715 53.516 64.0161 49.4606 59.0193 49.4606ZM44.5357 46.4191C41.639 46.4191 39.2492 48.8089 39.2492 51.7056C39.2492 54.6023 41.639 56.9921 44.5357 56.9921C47.4324 56.9921 49.8222 54.6023 49.8222 51.7056C49.8222 48.8089 47.4324 46.4191 44.5357 46.4191ZM56.4846 25.6352C56.9191 25.6352 57.2088 25.3455 57.2088 24.911C57.2088 24.4765 56.9191 24.1869 56.4846 24.1869C56.1226 24.1869 55.7605 24.4765 55.7605 24.911C55.7605 25.2731 56.1226 25.6352 56.4846 25.6352ZM60.6124 26.4318C60.7573 26.4318 60.9021 26.3594 61.047 26.287C61.2642 26.1421 61.3366 25.9249 61.3366 25.7076C61.3366 25.5628 61.2642 25.418 61.1918 25.2731C61.047 25.0559 60.8297 24.9835 60.6124 24.9835C60.4676 24.9835 60.3228 25.0559 60.1779 25.1283C59.8883 25.3455 59.8159 25.7801 60.0331 26.1421C60.1779 26.287 60.3952 26.4318 60.6124 26.4318Z" fill="white"/>
    <path d="M60.9744 30.7045C61.3744 30.7045 61.6986 30.3802 61.6986 29.9803C61.6986 29.5803 61.3744 29.2561 60.9744 29.2561C60.5745 29.2561 60.2502 29.5803 60.2502 29.9803C60.2502 30.3802 60.5745 30.7045 60.9744 30.7045Z" fill="white"/>
    <path d="M60.9744 32.8769C61.3744 32.8769 61.6986 32.5527 61.6986 32.1528C61.6986 31.7528 61.3744 31.4286 60.9744 31.4286C60.5745 31.4286 60.2502 31.7528 60.2502 32.1528C60.2502 32.5527 60.5745 32.8769 60.9744 32.8769Z" fill="white"/>
    <path d="M58.6573 25.6352C59.0572 25.6352 59.3815 25.311 59.3815 24.9111C59.3815 24.5111 59.0572 24.1869 58.6573 24.1869C58.2573 24.1869 57.9331 24.5111 57.9331 24.9111C57.9331 25.311 58.2573 25.6352 58.6573 25.6352Z" fill="white"/>
    <path d="M60.9745 35.7737C60.6848 35.7737 60.3952 35.9909 60.3228 36.2806C60.8297 36.353 61.2642 36.4979 61.6987 36.7151V36.4979C61.6987 36.1358 61.3366 35.7737 60.9745 35.7737Z" fill="white"/>
    <path d="M60.9744 28.532C61.3744 28.532 61.6986 28.2077 61.6986 27.8078C61.6986 27.4078 61.3744 27.0836 60.9744 27.0836C60.5745 27.0836 60.2502 27.4078 60.2502 27.8078C60.2502 28.2077 60.5745 28.532 60.9744 28.532Z" fill="white"/>
    <path d="M60.9744 35.0495C61.3744 35.0495 61.6986 34.7253 61.6986 34.3254C61.6986 33.9254 61.3744 33.6012 60.9744 33.6012C60.5745 33.6012 60.2502 33.9254 60.2502 34.3254C60.2502 34.7253 60.5745 35.0495 60.9744 35.0495Z" fill="white"/>
    <path d="M28.097 35.0495C28.4969 35.0495 28.8212 34.7253 28.8212 34.3254C28.8212 33.9254 28.4969 33.6012 28.097 33.6012C27.697 33.6012 27.3728 33.9254 27.3728 34.3254C27.3728 34.7253 27.697 35.0495 28.097 35.0495Z" fill="white"/>
    <path d="M28.097 32.8769C28.4969 32.8769 28.8212 32.5527 28.8212 32.1528C28.8212 31.7528 28.4969 31.4286 28.097 31.4286C27.697 31.4286 27.3728 31.7528 27.3728 32.1528C27.3728 32.5527 27.697 32.8769 28.097 32.8769Z" fill="white"/>
    <path d="M28.821 36.2806C28.7486 35.9909 28.4589 35.7737 28.1692 35.7737C27.7347 35.7737 27.4451 36.0634 27.4451 36.4979V36.7151C27.8796 36.4979 28.3141 36.4254 28.821 36.2806Z" fill="white"/>
    <path d="M28.097 30.7045C28.4969 30.7045 28.8212 30.3802 28.8212 29.9803C28.8212 29.5803 28.4969 29.2561 28.097 29.2561C27.697 29.2561 27.3728 29.5803 27.3728 29.9803C27.3728 30.3802 27.697 30.7045 28.097 30.7045Z" fill="white"/>
    <path d="M30.4144 25.6352C30.8143 25.6352 31.1385 25.311 31.1385 24.9111C31.1385 24.5111 30.8143 24.1869 30.4144 24.1869C30.0144 24.1869 29.6902 24.5111 29.6902 24.9111C29.6902 25.311 30.0144 25.6352 30.4144 25.6352Z" fill="white"/>
    <path d="M32.5867 25.6352C32.9867 25.6352 33.3109 25.311 33.3109 24.9111C33.3109 24.5111 32.9867 24.1869 32.5867 24.1869C32.1868 24.1869 31.8625 24.5111 31.8625 24.9111C31.8625 25.311 32.1868 25.6352 32.5867 25.6352Z" fill="white"/>
    <path d="M28.4591 26.4318C28.6763 26.4318 28.8936 26.3593 29.0384 26.1421C29.1108 25.9972 29.1833 25.8524 29.1833 25.7076C29.1833 25.4903 29.1108 25.2731 28.8936 25.1282C28.7487 25.0558 28.6039 24.9834 28.4591 24.9834C28.2418 24.9834 28.0246 25.0558 27.8797 25.2731C27.6625 25.6352 27.7349 26.0697 28.0246 26.2869C28.1694 26.3593 28.3142 26.4318 28.4591 26.4318Z" fill="white"/>
    <path d="M28.097 28.532C28.4969 28.532 28.8212 28.2077 28.8212 27.8078C28.8212 27.4078 28.4969 27.0836 28.097 27.0836C27.697 27.0836 27.3728 27.4078 27.3728 27.8078C27.3728 28.2077 27.697 28.532 28.097 28.532Z" fill="white"/>
  </symbol>
  <symbol id="svg_card_7" viewBox="0 0 89 89" fill="none" xmlns="http://www.w3.org/2000/svg">
    <path d="M31.7975 21H23.329C22.1598 21 21.2119 21.9479 21.2119 23.1171V31.5856C21.2119 32.7548 22.1598 33.7027 23.329 33.7027H31.7975C32.9668 33.7027 33.9146 32.7548 33.9146 31.5856V23.1171C33.9146 21.9479 32.9668 21 31.7975 21Z" fill="white"/>
    <path d="M31.7975 36.2433H23.329C22.1598 36.2433 21.2119 37.1912 21.2119 38.3604V46.8289C21.2119 47.9981 22.1598 48.946 23.329 48.946H31.7975C32.9668 48.946 33.9146 47.9981 33.9146 46.8289V38.3604C33.9146 37.1912 32.9668 36.2433 31.7975 36.2433Z" fill="white"/>
    <path d="M31.7975 51.4865H23.329C22.1598 51.4865 21.2119 52.4343 21.2119 53.6036V62.072C21.2119 63.2413 22.1598 64.1892 23.329 64.1892H31.7975C32.9668 64.1892 33.9146 63.2413 33.9146 62.072V53.6036C33.9146 52.4343 32.9668 51.4865 31.7975 51.4865Z" fill="white"/>
    <path d="M65.6713 21H38.5722C38.0108 21.0004 37.4726 21.2236 37.0757 21.6206C36.6787 22.0175 36.4555 22.5558 36.4551 23.1171V31.5856C36.4555 32.1469 36.6787 32.6852 37.0757 33.0821C37.4726 33.4791 38.0108 33.7023 38.5722 33.7027H65.6713C66.2327 33.7023 66.7709 33.4791 67.1678 33.0821C67.5648 32.6852 67.788 32.1469 67.7884 31.5856V23.1171C67.788 22.5558 67.5648 22.0175 67.1678 21.6206C66.7709 21.2236 66.2327 21.0004 65.6713 21ZM42.8064 29.8919C42.304 29.8919 41.8128 29.7429 41.395 29.4637C40.9772 29.1846 40.6516 28.7878 40.4593 28.3236C40.267 27.8594 40.2167 27.3485 40.3147 26.8557C40.4127 26.3629 40.6547 25.9102 41.01 25.5549C41.3653 25.1996 41.818 24.9577 42.3108 24.8596C42.8036 24.7616 43.3144 24.8119 43.7787 25.0042C44.2429 25.1965 44.6397 25.5221 44.9188 25.9399C45.198 26.3577 45.347 26.8489 45.347 27.3514C45.347 28.0251 45.0793 28.6713 44.6029 29.1478C44.1264 29.6242 43.4802 29.8919 42.8064 29.8919ZM61.4371 28.6216H49.5812C49.2443 28.6216 48.9212 28.4878 48.683 28.2496C48.4448 28.0113 48.3109 27.6882 48.3109 27.3514C48.3109 27.0145 48.4448 26.6914 48.683 26.4531C48.9212 26.2149 49.2443 26.0811 49.5812 26.0811H61.4371C61.774 26.0811 62.0971 26.2149 62.3353 26.4531C62.5735 26.6914 62.7073 27.0145 62.7073 27.3514C62.7073 27.6882 62.5735 28.0113 62.3353 28.2496C62.0971 28.4878 61.774 28.6216 61.4371 28.6216ZM65.6713 36.2432H38.5722C38.0107 36.2432 37.4722 36.4663 37.0752 36.8633C36.6781 37.2604 36.4551 37.7989 36.4551 38.3604V46.8288C36.4551 47.3903 36.6781 47.9288 37.0752 48.3259C37.4722 48.7229 38.0107 48.9459 38.5722 48.9459H46.6511V45.982C46.6511 44.6344 47.1864 43.342 48.1393 42.3891C49.0922 41.4362 50.3846 40.9009 51.7322 40.9009C53.0798 40.9009 54.3722 41.4362 55.3251 42.3891C56.278 43.342 56.8133 44.6344 56.8133 45.982V48.9459H65.6713C66.2328 48.9459 66.7713 48.7229 67.1683 48.3259C67.5654 47.9288 67.7884 47.3903 67.7884 46.8288V38.3604C67.7884 37.7989 67.5654 37.2604 67.1683 36.8633C66.7713 36.4663 66.2328 36.2432 65.6713 36.2432ZM42.8064 45.1351C42.304 45.1351 41.8128 44.9861 41.395 44.707C40.9772 44.4278 40.6516 44.031 40.4593 43.5668C40.267 43.1026 40.2167 42.5918 40.3147 42.099C40.4127 41.6061 40.6547 41.1535 41.01 40.7982C41.3653 40.4429 41.818 40.2009 42.3108 40.1029C42.8036 40.0048 43.3144 40.0552 43.7787 40.2474C44.2429 40.4397 44.6397 40.7654 44.9188 41.1831C45.198 41.6009 45.347 42.0921 45.347 42.5946C45.3474 42.9283 45.282 43.2589 45.1545 43.5673C45.027 43.8758 44.8399 44.156 44.6039 44.392C44.3679 44.628 44.0876 44.8151 43.7792 44.9427C43.4707 45.0702 43.1402 45.1356 42.8064 45.1351ZM55.1128 62.0721V54.4505C55.1128 53.7767 55.3805 53.1305 55.8569 52.654C56.3334 52.1776 56.9796 51.9099 57.6534 51.9099C58.5472 51.9099 59.4045 52.265 60.0366 52.8971C60.6687 53.5292 61.0238 54.3865 61.0238 55.2804V62.0721H55.1128Z" fill="white"/>
    <path d="M61.0223 59.5315V56.1442C61.0223 55.695 61.2007 55.2642 61.5184 54.9465C61.836 54.6289 62.2668 54.4505 62.716 54.4505C63.6144 54.4505 64.476 54.8073 65.1112 55.4426C65.7465 56.0779 66.1034 56.9395 66.1034 57.8378V64.6126C66.1034 65.511 65.7465 66.3726 65.1112 67.0079C64.476 67.6431 63.6144 68 62.716 68H47.1831C46.738 68.0001 46.2973 67.9125 45.8861 67.7422C45.4748 67.5719 45.1012 67.3223 44.7865 67.0075L44.0853 66.3063L40.3389 62.0619C39.8793 61.3021 39.7256 60.396 39.9089 59.5272C40.0923 58.6583 40.5989 57.8916 41.3263 57.3822C41.703 57.1183 42.1281 56.9311 42.5772 56.8315C43.0262 56.7318 43.4905 56.7217 43.9435 56.8016C44.3966 56.8815 44.8294 57.0499 45.2173 57.2972C45.6051 57.5444 45.9405 57.8657 46.2042 58.2426L47.7844 60.3784H48.3196L48.3365 45.982C48.3365 45.0836 48.6934 44.222 49.3287 43.5867C49.9639 42.9515 50.8255 42.5946 51.7239 42.5946C52.6223 42.5946 53.4839 42.9515 54.1192 43.5867C54.7544 44.222 55.1113 45.0836 55.1113 45.982V59.5315H61.0223Z" fill="white"/>
  </symbol>
  <symbol id="svg_card_8" viewBox="0 0 89 89" fill="none" xmlns="http://www.w3.org/2000/svg">
    <path d="M38.2383 28.8228C38.8923 28.8214 40.9881 28.7693 41.5049 28.9046C41.8828 29.0069 42.2315 29.1958 42.5238 29.4565C43.0405 29.9119 43.3851 30.6319 43.4218 31.3179C43.4713 32.2437 43.2332 32.8613 42.6312 33.5432C41.7339 34.3729 41.0977 34.3034 39.9446 34.3009L38.2354 34.3004L38.2383 28.8228Z" fill="white"/>
    <path d="M24.8988 21.0167C26.0871 20.9799 27.4667 21.0147 28.6713 21.0157L35.6449 21.0148L54.4379 21.0128C55.658 21.0185 56.511 21.2567 57.3998 22.1642C57.9496 22.7298 58.3156 23.4489 58.4476 24.2267C58.5311 24.7145 58.5075 25.755 58.5072 26.2843L58.5043 29.797L58.5023 42.9103L54.4515 42.9112C53.7294 42.9113 52.3945 42.8727 51.7113 42.9357C50.2527 43.0762 48.8885 43.7233 47.8568 44.7638C46.9979 45.6432 46.4068 46.7489 46.1527 47.9513C45.9861 48.7175 46.02 49.4649 46.0209 50.2433L46.0228 52.4093V60.1652L46.0209 63.3536C46.02 65.3373 45.9271 66.1288 46.8705 67.9835L31.3031 67.9825H26.7601C25.1206 67.9832 23.7475 68.2075 22.4125 67.0402C21.6321 66.3701 21.1584 65.4108 21.101 64.3839C21.0542 63.6041 21.0921 62.4949 21.0931 61.6769V29.7355L21.0922 26.3234C21.0921 25.738 21.0646 25.0518 21.1146 24.4796C21.2347 23.1073 22.2322 21.8353 23.4926 21.3097C23.9939 21.1006 24.3618 21.0498 24.8988 21.0167ZM31.9359 55.42C31.1205 55.55 30.7816 56.0394 30.226 56.6017L28.8842 57.963C28.39 57.4555 28.0451 56.9985 27.2787 56.9884C26.8684 56.9799 26.4718 57.139 26.181 57.4288C25.8905 57.7204 25.7272 58.1157 25.7269 58.5275C25.7298 59.2312 26.1482 59.6426 26.6215 60.09C26.8527 60.3087 27.0837 60.5528 27.3158 60.7745C27.3326 60.7907 27.3503 60.8068 27.3676 60.8224C27.8234 61.2852 28.151 61.6886 28.8637 61.6886C29.6437 61.6886 30.0199 61.1785 30.5267 60.6749C31.3747 59.8251 32.2276 58.9762 33.0756 58.1261C33.4202 57.7807 33.6343 57.3969 33.6078 56.8986C33.5615 56.0339 32.8144 55.3226 31.9359 55.42ZM37.2982 56.9962C36.6304 56.9959 36.0691 56.9331 35.5531 57.4513C35.2597 57.748 35.097 58.1503 35.1019 58.5675C35.1079 58.9874 35.2828 59.3876 35.5873 59.6769C35.7787 59.8604 36.0148 59.9913 36.2719 60.0568C36.6321 60.1464 38.6415 60.0989 39.1547 60.1036C39.8036 60.1078 40.3503 60.1604 40.8529 59.6573C41.147 59.3642 41.3118 58.9659 41.3109 58.5509C41.3101 58.1286 41.1393 57.724 40.8363 57.4298C40.6429 57.2412 40.4016 57.1081 40.139 57.045C39.7612 56.956 37.8112 57 37.2982 56.9962ZM32.0472 47.5773C31.1283 47.6729 30.7636 48.2542 30.1351 48.8653C29.7177 49.2709 29.2961 49.6903 28.892 50.1085C28.4027 49.6111 28.0424 49.1433 27.2787 49.1368C26.8751 49.1324 26.4862 49.2874 26.1957 49.5675C25.8971 49.8645 25.7288 50.2682 25.7289 50.6896C25.7353 51.3923 26.1516 51.7563 26.6078 52.2081L27.3168 52.9073C27.7774 53.3722 28.1449 53.8361 28.8627 53.8497C29.6907 53.8648 30.2242 53.1399 30.766 52.5978L32.6674 50.6935C33.1503 50.2087 33.6059 49.8525 33.6078 49.1202C33.6059 48.6935 33.4301 48.2859 33.1205 47.9923C32.8127 47.6956 32.461 47.5951 32.0472 47.5773ZM39.3705 49.1388C38.4711 49.1515 37.5641 49.1272 36.6654 49.1476C36.1866 49.1822 35.8139 49.2927 35.4828 49.6798C35.2116 49.9952 35.0779 50.4062 35.1117 50.8204C35.1488 51.2391 35.3504 51.6256 35.6722 51.8956C35.8692 52.0605 36.1035 52.175 36.3549 52.2286C36.6383 52.2896 37.3501 52.2702 37.6732 52.2696L39.7855 52.2618C40.2786 52.2224 40.6359 52.0858 40.9623 51.6974C41.2315 51.3767 41.3602 50.9607 41.3197 50.5441C41.2805 50.1293 41.0897 49.7585 40.7611 49.4991C40.5681 49.3471 40.3424 49.2425 40.1019 49.1925C39.8657 49.1425 39.6113 49.1352 39.3705 49.1388ZM36.5189 26.1085C36.0067 26.174 35.4608 26.5303 35.4408 27.0753C35.3537 29.4647 35.4695 31.9151 35.4144 34.3019C34.7603 34.2948 33.976 34.1856 33.4857 34.6593C33.2412 34.8997 33.1072 35.2305 33.1146 35.5734C33.1183 35.9154 33.2645 36.2412 33.518 36.4708C34.0024 36.9074 34.7647 36.7925 35.4125 36.7941L35.4203 38.2716C34.7573 38.2634 33.9814 38.149 33.4906 38.6212C33.2448 38.8594 33.1102 39.1902 33.1195 39.5323C33.123 39.8715 33.2686 40.1934 33.5209 40.42C34.0105 40.863 34.7785 40.7403 35.4183 40.7394C35.4163 41.1225 35.3836 42.2476 35.4642 42.5655C35.5268 42.8065 35.653 43.0266 35.8285 43.2032C36.0969 43.4722 36.4632 43.6202 36.8431 43.6134C37.2229 43.6114 37.5864 43.4571 37.851 43.1847C38.4075 42.6078 38.2186 41.5517 38.2406 40.7443C38.9339 40.7412 41.7274 40.8278 42.2152 40.6486C43.2237 40.1037 43.2411 38.7438 42.0961 38.3253C41.811 38.2211 40.8631 38.2656 40.5297 38.2657L38.2357 38.2687L38.2387 36.7921L40.1019 36.7931C41.8955 36.7926 43.2817 36.6707 44.6537 35.3116C45.6667 34.2971 46.2318 32.919 46.2221 31.4855C46.2188 30.0243 45.6296 28.6257 44.5873 27.6017C42.9957 26.0397 41.4604 26.1087 39.4486 26.1066L36.5189 26.1085Z" fill="white"/>
    <path d="M63.6193 46.0041C64.1473 46.0032 64.8851 45.9675 65.3878 46.0617C66.7762 46.3217 67.8954 47.606 67.9093 49.0314C67.9203 50.182 67.9168 51.3426 67.9171 52.4982L67.9152 59.3625L67.9171 63.2814C67.9174 63.7167 67.9417 64.9009 67.8869 65.2912C67.7965 65.9132 67.5226 66.4941 67.1007 66.9601C66.4628 67.6534 65.7316 67.9438 64.8078 67.9806L55.7628 67.9816H53.2043C52.0461 67.9807 51.2046 68.0743 50.2453 67.2746C49.5951 66.7428 49.1908 65.9683 49.1261 65.131C49.0965 64.7854 49.1089 64.2901 49.1095 63.9357L49.1115 61.922L49.1134 55.6613L49.1105 51.0714C49.1099 50.4764 49.1142 49.8685 49.1125 49.2755C49.1071 47.4491 50.3529 46.1557 52.1447 46.008C53.1246 45.984 54.1812 46.0067 55.1691 46.007H60.9728L63.6193 46.0041ZM61.4523 60.133C60.5871 60.2471 59.9796 61.043 60.0978 61.9074C60.216 62.772 61.0157 63.376 61.88 63.2531C62.7374 63.1309 63.3355 62.3386 63.2179 61.4806C63.1007 60.6225 62.311 60.0201 61.4523 60.133ZM55.2082 60.1349C54.3473 60.2511 53.7437 61.0435 53.8605 61.9044C53.9772 62.7655 54.7703 63.3688 55.631 63.2511C56.4906 63.1336 57.0924 62.3412 56.9757 61.4816C56.8589 60.6221 56.068 60.0191 55.2082 60.1349ZM61.4357 55.423C60.5758 55.5462 59.9784 56.3434 60.1007 57.2033C60.2236 58.0629 61.019 58.6609 61.8791 58.5392C62.7398 58.4174 63.3393 57.6207 63.2169 56.7599C63.0944 55.8989 62.2964 55.2999 61.4357 55.423ZM55.1994 55.4269C54.3377 55.5492 53.74 56.3481 53.8664 57.2091C53.9928 58.0699 54.7952 58.6639 55.6554 58.5333C56.5101 58.4038 57.0993 57.6081 56.9738 56.7531C56.8481 55.8978 56.055 55.3053 55.1994 55.4269ZM60.8039 50.7248H58.9611L56.5451 50.7267C56.1644 50.7273 55.5854 50.7137 55.215 50.7394C54.2852 50.9271 53.6761 51.6714 53.8908 52.6291C53.982 53.0438 54.2405 53.4021 54.6046 53.6203C55.0905 53.9158 55.797 53.8449 56.3537 53.8449H60.5685C60.9509 53.8446 61.4814 53.8581 61.8546 53.8341C62.7613 53.6775 63.382 52.9235 63.1955 51.9943C63.1128 51.581 62.8707 51.2169 62.5216 50.9806C62.0339 50.6561 61.3709 50.7256 60.8039 50.7248Z" fill="white"/>
  </symbol>
  <symbol id="svg_card_9" viewBox="0 0 89 89" fill="none" xmlns="http://www.w3.org/2000/svg">
    <path fill-rule="evenodd" clip-rule="evenodd" d="M45.1058 25.0769C40.9984 24.9396 36.9623 26.1742 33.6345 28.5857C30.3068 30.9973 27.877 34.4485 26.7287 38.3945C26.399 38.3572 26.0048 38.3762 25.5374 38.5085C23.7889 39.0037 22.4747 40.4349 21.8837 41.6965C21.1173 43.3375 20.7941 45.5127 21.1356 47.7535C21.4742 49.9943 22.4191 51.838 23.601 52.9826C24.7858 54.1242 26.1248 54.4995 27.4544 54.2164C29.434 53.798 30.4155 53.4813 30.1383 51.6376L28.7969 42.697C28.9324 40.2636 29.632 37.895 30.8406 35.7786C32.0491 33.6622 33.7334 31.856 35.7604 30.5027C38.4917 28.676 41.7268 27.7512 45.0109 27.8582C48.295 27.9653 51.463 29.0988 54.0695 31.0995C55.8691 32.4794 57.3489 34.2323 58.4072 36.238C59.4656 38.2436 60.0775 40.4545 60.2009 42.7188L59.2619 48.9702C58.2445 51.762 56.4561 54.208 54.1044 56.0242C51.7526 57.8405 48.934 58.9524 45.9756 59.231H41.9775C41.733 59.2303 41.4908 59.2779 41.2649 59.371C41.0389 59.4642 40.8335 59.601 40.6605 59.7738C40.4876 59.9465 40.3504 60.1517 40.257 60.3776C40.1636 60.6035 40.1157 60.8456 40.1161 61.09V62.0721C40.1157 62.3167 40.1635 62.5589 40.257 62.7849C40.3504 63.0109 40.4875 63.2163 40.6604 63.3892C40.8333 63.5621 41.0387 63.6992 41.2647 63.7926C41.4907 63.8861 41.7329 63.9339 41.9775 63.9335H47.0186C47.2631 63.9339 47.5052 63.886 47.7311 63.7926C47.9569 63.6992 48.1621 63.562 48.3349 63.3891C48.5076 63.2161 48.6445 63.0107 48.7376 62.7848C48.8308 62.5588 48.8784 62.3166 48.8777 62.0721V61.561C53.4069 60.4512 57.3528 57.6781 59.9314 53.7927L61.547 54.2176C62.8612 54.5592 64.2156 54.1254 65.4004 52.9838C66.5823 51.8391 67.5278 49.9955 67.8658 47.7541C68.2073 45.5139 67.8752 43.344 67.1177 41.6971C66.3577 40.0485 65.2249 39.0025 63.9166 38.6297C63.3688 38.4725 62.775 38.411 62.2638 38.3986C61.166 34.6194 58.8912 31.2891 55.7702 28.8919C52.7006 26.5387 48.9715 25.2051 45.1058 25.078V25.0769Z" fill="white"/>
    <path fill-rule="evenodd" clip-rule="evenodd" d="M48.3469 38.8926H51.1839V44.2263H52.4828V46.2354H51.1839V48.2647H48.6424V46.236H44.8687V44.2263L48.3469 38.8926ZM40.1934 38.8926C41.1968 38.8926 42.0122 39.1609 42.6433 39.6963C43.2774 40.2352 43.5947 40.9491 43.5947 41.8414C43.5947 42.8873 43.1019 43.7288 42.3662 44.2759L40.0521 45.9997H43.6497V48.2647H36.5166V46.1415L39.3696 44.0272C40.0279 43.5367 40.425 43.1095 40.6005 42.8235C41.1176 41.9773 40.945 40.9674 39.9848 40.9674C39.3076 40.9674 38.9294 41.4992 38.849 42.5646L36.5166 42.109C36.6886 41.0217 37.1105 40.2181 37.7871 39.6904C38.4679 39.158 39.2703 38.8926 40.1934 38.8926ZM44.5 30.787C37.4154 30.787 31.7065 36.305 31.7065 43.5804C31.7065 47.0746 33.0267 50.1574 35.1782 52.4236L34.4147 55.8486C34.1624 56.9755 34.9442 57.7324 35.957 57.1657L39.2987 55.3008C40.9405 56.011 42.7111 56.3753 44.5 56.3709C51.5881 56.3709 57.2941 50.8535 57.2941 43.5798C57.2941 36.305 51.5881 30.7864 44.5006 30.7864L44.5 30.787Z" fill="white"/>
    <path fill-rule="evenodd" clip-rule="evenodd" d="M48.6427 41.469L46.8906 44.2268H48.6421L48.6427 41.469Z" fill="white"/>
  </symbol>

  <symbol id="svg_card_check" viewBox="0 0 57 57" fill="none" xmlns="http://www.w3.org/2000/svg">
    <path d="M39.65 21.9L36.85 19.1C36.7565 19.0083 36.6308 18.957 36.5 18.957C36.3691 18.957 36.2434 19.0083 36.15 19.1L24.35 30.9C24.2565 30.9916 24.1308 31.0429 24 31.0429C23.8691 31.0429 23.7434 30.9916 23.65 30.9L20.85 28.1C20.7565 28.0083 20.6308 27.957 20.5 27.957C20.3691 27.957 20.2434 28.0083 20.15 28.1L17.35 30.9C17.2583 30.9934 17.207 31.1191 17.207 31.25C17.207 31.3808 17.2583 31.5065 17.35 31.6L23.65 37.9C23.7434 37.9916 23.8691 38.0429 24 38.0429C24.1308 38.0429 24.2565 37.9916 24.35 37.9L39.65 22.6C39.7416 22.5065 39.7929 22.3808 39.7929 22.25C39.7929 22.1191 39.7416 21.9934 39.65 21.9Z" fill="white"/>
  </symbol>

  <symbol id="footer_title_svg" viewBox="0 0 1715 157" fill="none" xmlns="http://www.w3.org/2000/svg">
    <path d="M54.901 156.24V30.38H0V4.34H138.88V30.38H83.979V156.24H54.901Z" fill="white"/>
    <path d="M247.812 156.24L235.66 127.596H163.399L151.247 156.24H121.301L184.448 4.34H214.611L277.758 156.24H247.812ZM173.381 103.075H225.678L199.638 41.447L173.381 103.075Z" fill="white"/>
    <path d="M280.953 156.24V131.719H287.246C298.096 131.719 302.002 123.256 304.823 112.189L331.514 4.34H427.862V156.24H399.002V30.38H353.866L330.647 124.775C326.09 143.22 316.325 156.24 293.974 156.24H280.953Z" fill="white"/>
    <path d="M502.709 156.24V30.38H447.808V4.34H586.688V30.38H531.787V156.24H502.709Z" fill="white"/>
    <path d="M657.106 0C701.374 0 737.396 36.022 737.396 80.29C737.396 124.558 701.374 160.58 657.106 160.58C631.283 160.58 608.281 148.428 593.742 129.332L613.272 113.274C623.905 125.426 639.529 133.455 657.323 133.455C682.061 133.455 701.808 116.095 706.799 92.659H633.453V67.921H706.799C701.808 44.485 682.061 27.125 657.323 27.125C639.529 27.125 623.905 35.154 613.272 47.306L593.742 31.248C608.281 12.152 631.283 0 657.106 0Z" fill="white"/>
    <path d="M755.167 156.24V4.34H784.028V65.534L849.562 4.34H887.103L806.379 80.29L887.103 156.24H849.562L784.028 95.046V156.24H755.167Z" fill="white"/>
    <path d="M1026.53 156.24V30.38H971.633V4.34H1110.51V30.38H1055.61V156.24H1026.53Z" fill="white"/>
    <path d="M1214.73 102.641H1157.88V156.24H1129.02V4.34H1214.73C1242.29 4.34 1262.25 27.342 1262.25 53.599C1262.25 79.856 1242.29 102.641 1214.73 102.641ZM1210.39 77.469C1225.15 77.469 1234.26 65.1 1234.26 53.599C1234.26 41.881 1225.15 29.729 1210.39 29.729H1157.88V77.469H1210.39Z" fill="white"/>
    <path d="M1373.23 156.24L1361.08 127.596H1288.82L1276.67 156.24H1246.72L1309.87 4.34H1340.03L1403.18 156.24H1373.23ZM1298.8 103.075H1351.1L1325.06 41.447L1298.8 103.075Z" fill="white"/>
    <path d="M1416.68 156.24V4.34H1445.54V67.27H1523.66V4.34H1552.74V156.24H1523.66V93.31H1445.54V156.24H1416.68Z" fill="white"/>
    <path d="M1650.75 160.58C1606.48 160.58 1570.46 124.558 1570.46 80.29C1570.46 36.022 1606.48 0 1650.75 0C1676.57 0 1699.58 12.152 1714.11 31.248L1694.58 47.306C1683.95 35.154 1668.33 27.125 1650.53 27.125C1621.67 27.125 1599.32 50.344 1599.32 80.29C1599.32 110.236 1621.67 133.455 1650.53 133.455C1668.33 133.455 1683.95 125.426 1694.58 113.274L1714.11 129.332C1699.58 148.428 1676.57 160.58 1650.75 160.58Z" fill="white"/>
  </symbol>
  <symbol id="svg_auth" viewBox="0 0 20 20" fill="none" xmlns="http://www.w3.org/2000/svg">
    <path d="M3 18V16.8571C3 14.3314 5.04571 12.2857 7.57143 12.2857H12.1429C14.6686 12.2857 16.7143 14.3314 16.7143 16.8571V18" stroke="white" stroke-width="2" stroke-linejoin="round"/>
    <path d="M9.85704 8.85714C7.9599 8.85714 6.42847 7.32571 6.42847 5.42857C6.42847 3.53143 7.9599 2 9.85704 2C11.7542 2 13.2856 3.53143 13.2856 5.42857C13.2856 7.32571 11.7542 8.85714 9.85704 8.85714Z" stroke="white" stroke-width="2" stroke-linejoin="round"/>
  </symbol>
</svg>