<svg width="0" height="0" class="hidden">
  <symbol id="svg_logo" viewBox="0 0 171 42" fill="none" xmlns="http://www.w3.org/2000/svg">
    <path d="M26.2549 29.932L37.0897 0H51.9149L35.4819 41.575H16.4304L0 0H15.2405L26.2549 29.932ZM71.1431 41.575H56.8566V0H71.1431V41.575ZM123.039 10.2153H107.023V41.575H92.7342V10.2153H76.719V0H123.039V10.2153ZM169.753 10.0977H142.904V15.6799H169.335V25.4781H142.904V31.4775H170.528V41.575H128.614V0H169.753V10.0977Z" fill="white"/>
  </symbol>
  <symbol id="svg_tel_2" viewBox="0 0 31 31" fill="none" xmlns="http://www.w3.org/2000/svg">
    <rect width="31" height="31" rx="15.5" fill="#5680B3" fill-opacity="0.15"/>
    <path d="M20.3039 23H20.5812C20.8136 22.9925 21.0309 22.8726 21.1658 22.6776L22.8671 20.2262C22.9795 20.0613 23.0245 19.8589 22.987 19.6564C22.9687 19.5578 22.9307 19.4638 22.8753 19.3801C22.82 19.2964 22.7484 19.2247 22.6648 19.1691L18.9849 16.7177C18.6776 16.5153 18.2654 16.5603 18.018 16.8302L16.609 18.352C16.0394 18.0146 15.0876 17.4074 14.3381 16.6577C13.5887 15.908 12.9816 14.956 12.6443 14.3937L14.1658 12.9843C14.4356 12.7369 14.488 12.3246 14.2782 12.0172L11.8274 8.3363C11.715 8.17137 11.5426 8.05143 11.3478 8.01394C11.1454 7.97646 10.943 8.01394 10.7782 8.13389L8.32739 9.82816C8.13253 9.9631 8.01261 10.1805 8.00512 10.4129C7.98263 10.9452 7.8852 15.6906 11.5951 19.3941C14.9377 22.7376 19.1198 22.9925 20.3039 22.9925V23Z" fill="#1E60B3"/>
  </symbol>

  <symbol id="svg_burger" viewBox="0 0 20 14" fill="none" xmlns="http://www.w3.org/2000/svg">
    <path d="M1 1H19M1 7H19M1 13H19" stroke="currentColor" stroke-width="2" stroke-linecap="round" stroke-linejoin="round"/>
  </symbol>
  <symbol fill="none" xmlns="http://www.w3.org/2000/svg" viewBox="0 0 14 14" id="svg_tel">
    <path fill-rule="evenodd" clip-rule="evenodd" d="M10.2988 13.998C9.28912 13.9609 6.42758 13.5655 3.43072 10.5699C0.434554 7.57366 0.0397867 4.71341 0.00192265 3.70321C-0.0541722 2.16373 1.12522 0.668404 2.48762 0.0844363C2.65169 0.0136079 2.83135 -0.0133586 3.00898 0.00618291C3.18661 0.0257244 3.35611 0.0911026 3.50084 0.195902C4.62273 1.01332 5.39684 2.24995 6.06157 3.2223C6.20782 3.43593 6.27036 3.69589 6.23725 3.95264C6.20415 4.2094 6.07772 4.445 5.88206 4.61457L4.51405 5.63038C4.44796 5.67809 4.40143 5.74817 4.38312 5.8276C4.36481 5.90702 4.37595 5.99039 4.41448 6.06222C4.72441 6.62515 5.27554 7.4636 5.9066 8.09454C6.53837 8.72548 7.41626 9.31295 8.01857 9.65786C8.09409 9.70025 8.18298 9.71209 8.26697 9.69097C8.35096 9.66985 8.42367 9.61736 8.47014 9.54429L9.36064 8.18918C9.52436 7.97175 9.76588 7.82609 10.0346 7.7827C10.3033 7.73932 10.5784 7.80157 10.8023 7.95643C11.7888 8.63925 12.9402 9.39988 13.783 10.4788C13.8963 10.6245 13.9684 10.798 13.9918 10.9812C14.0151 11.1643 13.9887 11.3503 13.9155 11.5198C13.3286 12.889 11.8435 14.0548 10.2988 13.998Z" fill="currentColor"></path>
  </symbol>


  <symbol id="svg_input_checkbox" viewBox="0 0 20 20" fill="none" xmlns="http://www.w3.org/2000/svg">
    <rect x="0.5" y="0.5" width="19" height="19" rx="3.5" fill="var(--color-3)"/>
    <rect x="0.5" y="0.5" width="19" height="19" rx="3.5" stroke="var(--color-1)"/>
    <path d="M7.59514 16L3 11.6042L5.09408 9.60103L7.59514 12.0006L14.9059 5L17 7.00322L7.59514 16Z" fill="var(--color-2)"/>
  </symbol>
  <symbol fill="none" xmlns="http://www.w3.org/2000/svg" viewBox="0 0 26 26" id="svg_input_radio">
    <circle cx="13" cy="13" r="12.5" stroke="currentColor"></circle>
    <circle cx="13" cy="13" r="8" fill="currentColor"></circle>
  </symbol>



  <symbol fill="none" xmlns="http://www.w3.org/2000/svg" viewBox="0 0 28 28" id="svg_social_email">
    <circle cx="14" cy="14" r="14" fill="var(--color-1)"></circle>
    <path d="M19.6 8H8.4C7.6268 8 7 8.6268 7 9.4V17.8C7 18.5732 7.6268 19.2 8.4 19.2H19.6C20.3732 19.2 21 18.5732 21 17.8V9.4C21 8.6268 20.3732 8 19.6 8Z" fill="var(--color-2)" stroke="var(--color-1)" stroke-width="1.6" stroke-linecap="round" stroke-linejoin="round"></path>
    <path d="M21 10.1006L14.721 14.0906C14.5049 14.226 14.255 14.2978 14 14.2978C13.745 14.2978 13.4951 14.226 13.279 14.0906L7 10.1006" fill="var(--color-2)"></path>
    <path d="M21 10.1006L14.721 14.0906C14.5049 14.226 14.255 14.2978 14 14.2978C13.745 14.2978 13.4951 14.226 13.279 14.0906L7 10.1006" stroke="var(--color-1)" stroke-width="1.6" stroke-linecap="round" stroke-linejoin="round"></path>
  </symbol>


  <symbol fill="none" xmlns="http://www.w3.org/2000/svg" viewBox="0 0 28 28" id="svg_social_whatsapp">
    <circle cx="14" cy="14" r="14" fill="var(--color-1)"></circle>
    <mask id="mask0_641_706" maskUnits="userSpaceOnUse" x="7" y="7" width="15" height="14">
      <path d="M21.5 7H7.5V21H21.5V7Z" fill="var(--color-1)"></path>
    </mask>
    <g mask="url(#mask0_641_706)">
      <path d="M14.5 19.25C17.3995 19.25 19.75 16.8995 19.75 14C19.75 11.1005 17.3995 8.75 14.5 8.75C11.6005 8.75 9.25 11.1005 9.25 14C9.25 16.8995 11.6005 19.25 14.5 19.25Z" fill="var(--color-1)"></path>
      <path d="M14.5018 7H14.4983C10.6386 7 7.50001 10.1395 7.50001 14C7.49762 15.4744 7.96434 16.9113 8.83263 18.1029L7.96026 20.7034L10.6509 19.8432C11.7922 20.6005 13.1321 21.0029 14.5018 21C18.3614 21 21.5 17.8596 21.5 14C21.5 10.1404 18.3614 7 14.5018 7ZM18.5749 16.8849C18.406 17.3617 17.7358 17.7572 17.2011 17.8727C16.8354 17.9506 16.3576 18.0127 14.7494 17.346C12.6923 16.4937 11.3675 14.4034 11.2643 14.2677C11.1654 14.1321 10.433 13.1609 10.433 12.1564C10.433 11.1519 10.9431 10.6627 11.1488 10.4527C11.3176 10.2804 11.5968 10.2016 11.8645 10.2016C11.9511 10.2016 12.029 10.206 12.099 10.2095C12.3046 10.2183 12.4079 10.2305 12.5435 10.5551C12.7124 10.962 13.1236 11.9665 13.1726 12.0697C13.2225 12.173 13.2724 12.313 13.2024 12.4486C13.1368 12.5886 13.079 12.6507 12.9758 12.7697C12.8725 12.8887 12.7745 12.9797 12.6713 13.1075C12.5768 13.2186 12.47 13.3376 12.589 13.5432C12.708 13.7445 13.1193 14.4156 13.7248 14.9546C14.5061 15.6502 15.1396 15.8725 15.3663 15.967C15.5351 16.037 15.7364 16.0204 15.8598 15.8891C16.0164 15.7202 16.2098 15.4402 16.4066 15.1646C16.5466 14.9669 16.7234 14.9424 16.9089 15.0124C17.0979 15.078 18.098 15.5724 18.3036 15.6747C18.5093 15.778 18.6449 15.827 18.6948 15.9136C18.7438 16.0002 18.7438 16.4071 18.5749 16.8849Z" fill="var(--color-2)"></path>
    </g>
  </symbol>

  <symbol fill="none" xmlns="http://www.w3.org/2000/svg" viewBox="0 0 28 28" id="svg_social_tg">
    <circle cx="14" cy="14" r="14" fill="var(--color-1)"></circle>
    <path fill-rule="evenodd" clip-rule="evenodd" d="M19.3427 8.08894C19.5394 8.01019 19.7547 7.98303 19.9662 8.01028C20.1777 8.03754 20.3777 8.11821 20.5453 8.24391C20.7129 8.36961 20.842 8.53573 20.9192 8.72499C20.9964 8.91425 21.0188 9.11973 20.9842 9.32004L19.1787 19.736C19.0035 20.7407 17.8445 21.3169 16.8757 20.8164C16.0653 20.3977 14.8616 19.7526 13.779 19.0795C13.2376 18.7426 11.5794 17.6637 11.7832 16.8959C11.9583 16.2395 14.7446 13.7728 16.3367 12.3062C16.9616 11.73 16.6766 11.3976 15.9387 11.9276C14.1061 13.2435 11.1639 15.2446 10.1911 15.8079C9.33291 16.3046 8.88552 16.3894 8.35056 16.3046C7.37458 16.1502 6.46945 15.9109 5.7307 15.6194C4.73243 15.2257 4.78099 13.9204 5.72991 13.5403L19.3427 8.08894Z" fill="var(--color-2)"></path>
  </symbol>

  <symbol fill="none" xmlns="http://www.w3.org/2000/svg" viewBox="0 0 18 18" id="svg_close">
    <path d="M17 1L9 9M9 9L1 17M9 9L1 1M9 9L17 17" stroke="currentColor" stroke-width="2" stroke-linecap="round" stroke-linejoin="round"></path>
  </symbol>


  <symbol fill="none" xmlns="http://www.w3.org/2000/svg" viewBox="0 0 44 44" id="svg_arrow_slider">
    <path d="M22 43C33.598 43 43 33.598 43 22C43 10.402 33.598 1 22 1C10.402 1 1 10.402 1 22C1 33.598 10.402 43 22 43Z" fill="var(--color-1)" stroke="var(--color-2)" stroke-width="2" stroke-linecap="round" stroke-linejoin="round"></path>
    <path d="M19 15L26 22L19 29" stroke="var(--color-3)" stroke-width="1.5" stroke-linecap="round" stroke-linejoin="round"></path>
  </symbol>
  <symbol fill="none" xmlns="http://www.w3.org/2000/svg" viewBox="0 0 10 25" id="svg_arrow_top">
    <path d="M5.42427 1.06181C5.18995 0.827497 4.81005 0.827497 4.57574 1.06181L0.75736 4.88019C0.523045 5.1145 0.523045 5.4944 0.75736 5.72872C0.991675 5.96303 1.37157 5.96303 1.60589 5.72872L5 2.3346L8.39411 5.72872C8.62843 5.96303 9.00833 5.96303 9.24264 5.72872C9.47696 5.4944 9.47696 5.1145 9.24264 4.88019L5.42427 1.06181ZM5.6 24.5146L5.6 1.48608L4.4 1.48608L4.4 24.5146L5.6 24.5146Z" fill="black"></path>
  </symbol>


  <symbol fill="none" xmlns="http://www.w3.org/2000/svg" viewBox="0 0 65 65" id="svg_popup_thanks">
    <path d="M32.5 0C41.1195 0 49.386 3.4241 55.481 9.51903C61.5759 15.614 65 23.8805 65 32.5C65 41.1195 61.5759 49.386 55.481 55.481C49.386 61.5759 41.1195 65 32.5 65C23.8805 65 15.614 61.5759 9.51903 55.481C3.4241 49.386 0 41.1195 0 32.5C0 23.8805 3.4241 15.614 9.51903 9.51903C15.614 3.4241 23.8805 0 32.5 0ZM46.1419 22.9369C45.8055 22.602 45.3625 22.3955 44.8898 22.3532C44.4171 22.3109 43.9445 22.4355 43.5541 22.7053L43.2697 22.9369L28.4375 37.7731L21.7506 31.0822L21.4662 30.8466C21.075 30.577 20.6016 30.4531 20.1284 30.4965C19.6553 30.5399 19.2123 30.7478 18.8765 31.084C18.5408 31.4202 18.3336 31.8635 18.2909 32.3367C18.2482 32.81 18.3727 33.2832 18.6428 33.6741L18.8744 33.9584L26.9994 42.0834L27.2837 42.315C27.623 42.5491 28.0254 42.6745 28.4375 42.6745C28.8496 42.6745 29.252 42.5491 29.5913 42.315L29.8756 42.0794L46.1419 25.8131L46.3775 25.5288C46.6479 25.1375 46.7724 24.6638 46.7293 24.1901C46.6862 23.7165 46.4784 23.273 46.1419 22.9369Z" fill="currentColor"></path>
  </symbol>

  <symbol fill="none" xmlns="http://www.w3.org/2000/svg" viewBox="0 0 16 16" id="svg_arrow_default">
    <path d="M11 7.99997C11.0001 8.06564 10.9872 8.13067 10.9621 8.19133C10.9369 8.252 10.9 8.3071 10.8535 8.35347L5.85353 13.3535C5.65816 13.5488 5.34178 13.5488 5.14653 13.3535C4.95128 13.1581 4.95116 12.8417 5.14653 12.6465L9.79303 7.99997L5.14653 3.35347C4.95116 3.15809 4.95116 2.84172 5.14653 2.64647C5.34191 2.45122 5.65828 2.45109 5.85353 2.64647L10.8535 7.64647C10.9 7.69284 10.9369 7.74794 10.9621 7.8086C10.9872 7.86927 11.0001 7.9343 11 7.99997Z" fill="currentColor"></path>
  </symbol>

  <symbol id="svg_button_move" viewBox="0 0 86 16" fill="none" xmlns="http://www.w3.org/2000/svg">
    <path d="M23.6364 3.42857C21.32 1.36 17.42 0 13 0C8.58 0 4.68 1.36 2.36364 3.42857H0V13.7143H1.18182C1.18182 14.3205 1.43084 14.9019 1.87411 15.3305C2.31738 15.7592 2.91858 16 3.54545 16C4.17233 16 4.77353 15.7592 5.2168 15.3305C5.66007 14.9019 5.90909 14.3205 5.90909 13.7143H20.0909C20.0909 14.3205 20.3399 14.9019 20.7832 15.3305C21.2265 15.7592 21.8277 16 22.4545 16C23.0814 16 23.6826 15.7592 24.1259 15.3305C24.5692 14.9019 24.8182 14.3205 24.8182 13.7143H26V3.42857H23.6364ZM14.1818 11.4286V6.85714H11.8182V11.4286H8.27273V6.85714H5.90909V11.4286H2.36364V5.71429H23.6364V11.4286H20.0909V6.85714H17.7273V11.4286H14.1818Z" fill="white"/>
    <path d="M56 1V13.6923H54.8182C54.8182 14.9731 53.7664 16 52.4545 16C51.1427 16 50.0909 14.9731 50.0909 13.6923H35.9091C35.9091 14.9731 34.8573 16 33.5455 16C32.2336 16 31.1818 14.9731 31.1818 13.6923H30V1H32.3636V11.3846H53.6364V1H56ZM38.2727 7.92308H33.5455V10.2308H38.2727V7.92308ZM46.5455 7.92308H39.4545V10.2308H46.5455V7.92308ZM52.4545 7.92308H47.7273V10.2308H52.4545V7.92308ZM38.2727 4.46154H33.5455V6.76923H38.2727V4.46154ZM46.5455 4.46154H39.4545V6.76923H46.5455V4.46154ZM52.4545 4.46154H47.7273V6.76923H52.4545V4.46154ZM38.2727 1H33.5455V3.30769H38.2727V1ZM46.5455 1H39.4545V3.30769H46.5455V1ZM52.4545 1H47.7273V3.30769H52.4545V1Z" fill="white"/>
    <path d="M60 1V13.6923H61.1818C61.1818 14.3043 61.4308 14.8913 61.8741 15.3241C62.3174 15.7569 62.9186 16 63.5455 16C64.1723 16 64.7735 15.7569 65.2168 15.3241C65.6601 14.8913 65.9091 14.3043 65.9091 13.6923H80.0909C80.0909 14.3043 80.3399 14.8913 80.7832 15.3241C81.2265 15.7569 81.8277 16 82.4545 16C83.0814 16 83.6826 15.7569 84.1259 15.3241C84.5692 14.8913 84.8182 14.3043 84.8182 13.6923H86V1H60ZM83.6364 11.3846H81.2727V4.46154H78.9091V11.3846H76.5455V4.46154H74.1818V11.3846H71.8182V4.46154H69.4545V11.3846H67.0909V4.46154H64.7273V11.3846H62.3636V3.30769H83.6364V11.3846Z" fill="white"/>
  </symbol>



  <symbol id="svg_card_check" viewBox="0 0 57 57" fill="none" xmlns="http://www.w3.org/2000/svg">
    <path d="M39.65 21.9L36.85 19.1C36.7565 19.0083 36.6308 18.957 36.5 18.957C36.3691 18.957 36.2434 19.0083 36.15 19.1L24.35 30.9C24.2565 30.9916 24.1308 31.0429 24 31.0429C23.8691 31.0429 23.7434 30.9916 23.65 30.9L20.85 28.1C20.7565 28.0083 20.6308 27.957 20.5 27.957C20.3691 27.957 20.2434 28.0083 20.15 28.1L17.35 30.9C17.2583 30.9934 17.207 31.1191 17.207 31.25C17.207 31.3808 17.2583 31.5065 17.35 31.6L23.65 37.9C23.7434 37.9916 23.8691 38.0429 24 38.0429C24.1308 38.0429 24.2565 37.9916 24.35 37.9L39.65 22.6C39.7416 22.5065 39.7929 22.3808 39.7929 22.25C39.7929 22.1191 39.7416 21.9934 39.65 21.9Z" fill="white"/>
  </symbol>

  <symbol id="svg_auth" viewBox="0 0 20 20" fill="none" xmlns="http://www.w3.org/2000/svg">
    <path d="M3 18V16.8571C3 14.3314 5.04571 12.2857 7.57143 12.2857H12.1429C14.6686 12.2857 16.7143 14.3314 16.7143 16.8571V18" stroke="white" stroke-width="2" stroke-linejoin="round"/>
    <path d="M9.85704 8.85714C7.9599 8.85714 6.42847 7.32571 6.42847 5.42857C6.42847 3.53143 7.9599 2 9.85704 2C11.7542 2 13.2856 3.53143 13.2856 5.42857C13.2856 7.32571 11.7542 8.85714 9.85704 8.85714Z" stroke="white" stroke-width="2" stroke-linejoin="round"/>
  </symbol>
</svg>