<svg xmlns="http://www.w3.org/2000/svg" width="180" height="171" viewBox="0 0 180 171" fill="none"><metadata><rdf:RDF xmlns:rdf="http://www.w3.org/1999/02/22-rdf-syntax-ns#" xmlns:dc="http://purl.org/dc/elements/1.1/"><rdf:Description><dc:creator>RealFaviconGenerator</dc:creator><dc:source>https://realfavicongenerator.net</dc:source></rdf:Description></rdf:RDF></metadata><path d="M98.0186 169.363C95.5121 172.545 90.3859 170.776 90.3859 166.732V127.901C90.3859 123.192 86.5608 119.377 81.8401 119.377H38.8632C35.3881 119.377 33.3612 115.455 35.3881 112.638L63.6429 73.1733C67.6884 67.5309 63.643 59.6883 56.6856 59.6883H4.67387C1.19873 59.6883 -0.826956 55.767 1.19874 52.9498L37.8286 1.7861C38.6346 0.665723 39.9285 0 41.3037 0H150.462C153.937 0 155.962 3.9213 153.937 6.73848L125.681 46.2032C121.636 51.8457 125.681 59.6883 132.639 59.6883H175.617C179.181 59.6883 181.183 63.7881 178.978 66.5891L98.0186 169.363Z" fill="#863BFF"></path><mask id="mask0_2074_364" style="mask-type:alpha" maskUnits="userSpaceOnUse" x="0" y="0" width="180" height="171">
<path d="M97.626 169.363C95.1195 172.546 89.9934 170.776 89.9934 166.733V127.901C89.9934 123.193 86.1682 119.377 81.4475 119.377H38.4707C34.9956 119.377 32.9687 115.455 34.9956 112.638L63.2504 73.1733C67.2959 67.5309 63.2504 59.6883 56.2931 59.6883H4.2813C0.80615 59.6883 -1.21953 55.767 0.806162 52.9498L37.4361 1.7861C38.2421 0.665723 39.536 0 40.9112 0H150.069C153.544 0 155.57 3.9213 153.544 6.73848L125.288 46.2033C121.244 51.8456 125.288 59.6883 132.247 59.6883H175.225C178.788 59.6883 180.79 63.7882 178.585 66.5891L97.626 169.363Z" fill="black"></path>
</mask><g mask="url(#mask0_2074_364)">
<g filter="url(#filter0_f_2074_364)">
<path d="M94.2887 139.177C94.3259 150.641 69.4853 160.016 38.8056 160.115C8.12585 160.214 -16.7752 151 -16.8124 139.536C-16.8497 128.071 7.99095 118.697 38.6707 118.598C69.3504 118.499 94.2514 127.712 94.2887 139.177Z" fill="#EDE6FF"></path>
</g>
<g filter="url(#filter1_f_2074_364)">
<path d="M77.0987 68.1711C77.169 89.817 26.7353 107.528 -35.5482 107.729C-97.8317 107.931 -148.379 90.5464 -148.45 68.9004C-148.52 47.2545 -98.0864 29.5438 -35.8029 29.3424C26.4806 29.141 77.0284 46.5252 77.0987 68.1711Z" fill="#EDE6FF"></path>
</g>
<g filter="url(#filter2_f_2074_364)">
<path d="M77.5349 62.6807C77.5722 74.1453 26.0369 83.6059 -37.5723 83.8116C-101.181 84.0173 -152.777 74.8901 -152.814 63.4255C-152.852 51.9609 -101.316 42.5003 -37.7072 42.2946C25.902 42.0889 77.4977 51.2161 77.5349 62.6807Z" fill="#7E14FF"></path>
</g>
<g filter="url(#filter3_f_2074_364)">
<path d="M95.7437 130.514C95.7809 141.979 44.0566 151.44 -19.7858 151.647C-83.6282 151.853 -135.413 142.727 -135.45 131.262C-135.487 119.797 -83.7631 110.336 -19.9207 110.13C43.9217 109.923 95.7064 119.05 95.7437 130.514Z" fill="#7E14FF"></path>
</g>
<g filter="url(#filter4_f_2074_364)">
<path d="M101.531 134.844C101.568 146.309 49.8437 155.77 -13.9987 155.976C-77.8411 156.183 -129.626 147.056 -129.663 135.592C-129.7 124.127 -77.976 114.666 -14.1336 114.459C49.7088 114.253 101.494 123.379 101.531 134.844Z" fill="#7E14FF"></path>
</g>
<g filter="url(#filter5_f_2074_364)">
<path d="M117.461 38.573C119.177 9.33396 157.848 -12.1914 203.835 -9.50531C249.822 -6.81919 285.71 19.0612 283.994 48.3003C282.278 77.5393 243.607 99.0647 197.62 96.3785C151.633 93.6924 115.745 67.812 117.461 38.573Z" fill="#EDE6FF"></path>
</g>
<g filter="url(#filter6_f_2074_364)">
<path d="M123.683 57.8017C123.558 50.5794 159.818 44.0971 204.672 43.3229C249.526 42.5487 285.989 47.7759 286.114 54.9982C286.239 62.2204 249.979 68.7028 205.125 69.4769C160.271 70.2511 123.809 65.0239 123.683 57.8017Z" fill="#7E14FF"></path>
</g>
<g filter="url(#filter7_f_2074_364)">
<path d="M123.683 57.8017C123.558 50.5794 159.818 44.0971 204.672 43.3229C249.526 42.5487 285.989 47.7759 286.114 54.9982C286.239 62.2204 249.979 68.7028 205.125 69.4769C160.271 70.2511 123.809 65.0239 123.683 57.8017Z" fill="#7E14FF"></path>
</g>
<g filter="url(#filter8_f_2074_364)">
<path d="M-68.5059 118.448C-61.4124 124.284 -24.3391 91.1217 14.2996 44.3788C52.9383 -2.36411 78.5108 -44.9874 71.4173 -50.8229C64.3237 -56.6585 27.2504 -23.4965 -11.3884 23.2464C-50.0271 69.9893 -75.5995 112.613 -68.5059 118.448Z" fill="#7E14FF"></path>
</g>
<g filter="url(#filter9_f_2074_364)">
<path d="M111.996 63.6146C119.252 69.248 155.372 35.055 192.672 -12.7577C229.972 -60.5703 254.328 -103.897 247.072 -109.53C239.817 -115.164 203.697 -80.9707 166.396 -33.158C129.096 14.6546 104.74 57.9812 111.996 63.6146Z" fill="#7E14FF"></path>
</g>
<g filter="url(#filter10_f_2074_364)">
<path d="M134.027 52.6168C143.859 60.2507 161.87 53.569 174.256 37.6928C186.641 21.8167 188.711 2.75806 178.879 -4.87583C169.046 -12.5097 151.035 -5.82808 138.649 10.0481C126.264 25.9242 124.194 44.9829 134.027 52.6168Z" fill="#47BFFF"></path>
</g>
<g filter="url(#filter11_f_2074_364)">
<path d="M-74.6417 231.038C-67.3858 236.671 -31.2659 202.478 6.03444 154.666C43.3348 106.853 67.6906 63.5265 60.4348 57.8931C53.1789 52.2596 17.059 86.4527 -20.2413 134.265C-57.5417 182.078 -81.8975 225.405 -74.6417 231.038Z" fill="#7E14FF"></path>
</g>
<g filter="url(#filter12_f_2074_364)">
<path d="M-74.6417 231.038C-67.3858 236.671 -31.2659 202.478 6.03444 154.666C43.3348 106.853 67.6906 63.5265 60.4348 57.8931C53.1789 52.2596 17.059 86.4527 -20.2413 134.265C-57.5417 182.078 -81.8975 225.405 -74.6417 231.038Z" fill="#7E14FF"></path>
</g>
<g filter="url(#filter13_f_2074_364)">
<path d="M67.1464 199.286C74.4023 204.919 110.522 170.726 147.823 122.914C185.123 75.1011 209.479 31.7745 202.223 26.1411C194.967 20.5077 158.847 54.7007 121.547 102.513C84.2464 150.326 59.8906 193.653 67.1464 199.286Z" fill="#7E14FF"></path>
</g>
<g filter="url(#filter14_f_2074_364)">
<path d="M109.64 167.609C119.472 175.243 143.334 161.061 162.937 135.933C182.54 110.806 190.461 84.2473 180.628 76.6134C170.796 68.9795 146.934 83.1611 127.331 108.289C107.728 133.416 99.8072 159.975 109.64 167.609Z" fill="#47BFFF"></path>
</g>
</g><defs>
<filter id="filter0_f_2074_364" x="-21.7235" y="113.686" width="120.923" height="51.341" filterUnits="userSpaceOnUse" color-interpolation-filters="sRGB">
<feFlood flood-opacity="0" result="BackgroundImageFix"></feFlood>
<feBlend mode="normal" in="SourceGraphic" in2="BackgroundImageFix" result="shape"></feBlend>
<feGaussianBlur stdDeviation="2.45548" result="effect1_foregroundBlur_2074_364"></feGaussianBlur>
</filter>
<filter id="filter1_f_2074_364" x="-153.361" y="24.4299" width="235.371" height="88.2121" filterUnits="userSpaceOnUse" color-interpolation-filters="sRGB">
<feFlood flood-opacity="0" result="BackgroundImageFix"></feFlood>
<feBlend mode="normal" in="SourceGraphic" in2="BackgroundImageFix" result="shape"></feBlend>
<feGaussianBlur stdDeviation="2.45548" result="effect1_foregroundBlur_2074_364"></feGaussianBlur>
</filter>
<filter id="filter2_f_2074_364" x="-155.761" y="39.3444" width="236.243" height="47.4171" filterUnits="userSpaceOnUse" color-interpolation-filters="sRGB">
<feFlood flood-opacity="0" result="BackgroundImageFix"></feFlood>
<feBlend mode="normal" in="SourceGraphic" in2="BackgroundImageFix" result="shape"></feBlend>
<feGaussianBlur stdDeviation="1.47329" result="effect1_foregroundBlur_2074_364"></feGaussianBlur>
</filter>
<filter id="filter3_f_2074_364" x="-138.397" y="107.179" width="237.087" height="47.4171" filterUnits="userSpaceOnUse" color-interpolation-filters="sRGB">
<feFlood flood-opacity="0" result="BackgroundImageFix"></feFlood>
<feBlend mode="normal" in="SourceGraphic" in2="BackgroundImageFix" result="shape"></feBlend>
<feGaussianBlur stdDeviation="1.47329" result="effect1_foregroundBlur_2074_364"></feGaussianBlur>
</filter>
<filter id="filter4_f_2074_364" x="-132.61" y="111.509" width="237.087" height="47.4171" filterUnits="userSpaceOnUse" color-interpolation-filters="sRGB">
<feFlood flood-opacity="0" result="BackgroundImageFix"></feFlood>
<feBlend mode="normal" in="SourceGraphic" in2="BackgroundImageFix" result="shape"></feBlend>
<feGaussianBlur stdDeviation="1.47329" result="effect1_foregroundBlur_2074_364"></feGaussianBlur>
</filter>
<filter id="filter5_f_2074_364" x="112.49" y="-14.6429" width="176.473" height="116.159" filterUnits="userSpaceOnUse" color-interpolation-filters="sRGB">
<feFlood flood-opacity="0" result="BackgroundImageFix"></feFlood>
<feBlend mode="normal" in="SourceGraphic" in2="BackgroundImageFix" result="shape"></feBlend>
<feGaussianBlur stdDeviation="2.45548" result="effect1_foregroundBlur_2074_364"></feGaussianBlur>
</filter>
<filter id="filter6_f_2074_364" x="120.736" y="40.3005" width="168.325" height="32.1988" filterUnits="userSpaceOnUse" color-interpolation-filters="sRGB">
<feFlood flood-opacity="0" result="BackgroundImageFix"></feFlood>
<feBlend mode="normal" in="SourceGraphic" in2="BackgroundImageFix" result="shape"></feBlend>
<feGaussianBlur stdDeviation="1.47329" result="effect1_foregroundBlur_2074_364"></feGaussianBlur>
</filter>
<filter id="filter7_f_2074_364" x="120.736" y="40.3005" width="168.325" height="32.1988" filterUnits="userSpaceOnUse" color-interpolation-filters="sRGB">
<feFlood flood-opacity="0" result="BackgroundImageFix"></feFlood>
<feBlend mode="normal" in="SourceGraphic" in2="BackgroundImageFix" result="shape"></feBlend>
<feGaussianBlur stdDeviation="1.47329" result="effect1_foregroundBlur_2074_364"></feGaussianBlur>
</filter>
<filter id="filter8_f_2074_364" x="-72.6341" y="-54.4353" width="148.179" height="176.496" filterUnits="userSpaceOnUse" color-interpolation-filters="sRGB">
<feFlood flood-opacity="0" result="BackgroundImageFix"></feFlood>
<feBlend mode="normal" in="SourceGraphic" in2="BackgroundImageFix" result="shape"></feBlend>
<feGaussianBlur stdDeviation="1.47329" result="effect1_foregroundBlur_2074_364"></feGaussianBlur>
</filter>
<filter id="filter9_f_2074_364" x="107.77" y="-113.084" width="143.528" height="180.253" filterUnits="userSpaceOnUse" color-interpolation-filters="sRGB">
<feFlood flood-opacity="0" result="BackgroundImageFix"></feFlood>
<feBlend mode="normal" in="SourceGraphic" in2="BackgroundImageFix" result="shape"></feBlend>
<feGaussianBlur stdDeviation="1.47329" result="effect1_foregroundBlur_2074_364"></feGaussianBlur>
</filter>
<filter id="filter10_f_2074_364" x="124.871" y="-10.9803" width="63.1627" height="69.7013" filterUnits="userSpaceOnUse" color-interpolation-filters="sRGB">
<feFlood flood-opacity="0" result="BackgroundImageFix"></feFlood>
<feBlend mode="normal" in="SourceGraphic" in2="BackgroundImageFix" result="shape"></feBlend>
<feGaussianBlur stdDeviation="1.47329" result="effect1_foregroundBlur_2074_364"></feGaussianBlur>
</filter>
<filter id="filter11_f_2074_364" x="-78.8675" y="54.3391" width="143.528" height="180.253" filterUnits="userSpaceOnUse" color-interpolation-filters="sRGB">
<feFlood flood-opacity="0" result="BackgroundImageFix"></feFlood>
<feBlend mode="normal" in="SourceGraphic" in2="BackgroundImageFix" result="shape"></feBlend>
<feGaussianBlur stdDeviation="1.47329" result="effect1_foregroundBlur_2074_364"></feGaussianBlur>
</filter>
<filter id="filter12_f_2074_364" x="-78.8675" y="54.3391" width="143.528" height="180.253" filterUnits="userSpaceOnUse" color-interpolation-filters="sRGB">
<feFlood flood-opacity="0" result="BackgroundImageFix"></feFlood>
<feBlend mode="normal" in="SourceGraphic" in2="BackgroundImageFix" result="shape"></feBlend>
<feGaussianBlur stdDeviation="1.47329" result="effect1_foregroundBlur_2074_364"></feGaussianBlur>
</filter>
<filter id="filter13_f_2074_364" x="62.9206" y="22.5871" width="143.528" height="180.253" filterUnits="userSpaceOnUse" color-interpolation-filters="sRGB">
<feFlood flood-opacity="0" result="BackgroundImageFix"></feFlood>
<feBlend mode="normal" in="SourceGraphic" in2="BackgroundImageFix" result="shape"></feBlend>
<feGaussianBlur stdDeviation="1.47329" result="effect1_foregroundBlur_2074_364"></feGaussianBlur>
</filter>
<filter id="filter14_f_2074_364" x="102.469" y="71.6008" width="85.3287" height="101.021" filterUnits="userSpaceOnUse" color-interpolation-filters="sRGB">
<feFlood flood-opacity="0" result="BackgroundImageFix"></feFlood>
<feBlend mode="normal" in="SourceGraphic" in2="BackgroundImageFix" result="shape"></feBlend>
<feGaussianBlur stdDeviation="1.47329" result="effect1_foregroundBlur_2074_364"></feGaussianBlur>
</filter>
</defs></svg>